<?xml version="1.0" encoding="utf-8"?>
<!-- Generator: Adobe Illustrator 24.3.0, SVG Export Plug-In . SVG Version: 6.00 Build 0)  -->
<svg version="1.1" id="Layer_1" xmlns="http://www.w3.org/2000/svg" xmlns:xlink="http://www.w3.org/1999/xlink" x="0px" y="0px"
	 viewBox="0 0 72 19.71" style="enable-background:new 0 0 72 19.71;" xml:space="preserve">
<style type="text/css">
	.st0{fill:#606060;}
</style>
<g>
	<g>
		<polygon class="st0" points="8.19,5.98 8.19,17.12 6.73,16 6.73,4.85 		"/>
		<polygon class="st0" points="6.12,4.38 6.12,15.52 4.66,14.4 4.66,3.26 		"/>
		<polygon class="st0" points="10.26,6.77 10.26,15.27 9.53,15.83 8.81,15.27 8.81,6.77 		"/>
		<polygon class="st0" points="12.33,4.95 12.33,16.09 10.88,17.21 10.88,6.07 		"/>
		<polygon class="st0" points="14.4,3.36 14.4,14.5 12.95,15.62 12.95,4.48 		"/>
	</g>
	<g>
		<g>
			<path class="st0" d="M24.54,6.52c0.02,0.02,0.03,0.04,0.03,0.06c0,0.05-0.04,0.08-0.13,0.08c-0.02,0-0.04,0-0.07-0.01
				c-0.03-0.01-0.06-0.01-0.08-0.01c-0.13,0-0.25,0.12-0.38,0.37c-0.53,1.02-0.87,2.29-1.03,3.81c0.06-0.12,0.14-0.27,0.25-0.47
				c0.03-0.06,0.07-0.09,0.11-0.09c0.05,0,0.08,0.03,0.08,0.1c0,0.03-0.01,0.07-0.03,0.11c-0.12,0.28-0.23,0.68-0.33,1.21
				c-0.02,0.12-0.08,0.17-0.16,0.17c-0.09,0-0.23-0.07-0.42-0.21c-0.09-0.07-0.14-0.12-0.15-0.16c-0.02-0.04-0.01-0.12,0-0.23
				c0.1-0.59,0.22-1.24,0.38-1.98c0.18-0.84,0.31-1.33,0.39-1.49c-0.28,0.33-0.63,0.83-1.04,1.47c-0.4,0.64-0.76,1.24-1.06,1.82
				c0.05,0.17,0.08,0.29,0.08,0.38c0,0.1-0.09,0.24-0.27,0.4c-0.09,0.09-0.15,0.13-0.18,0.13c-0.03,0-0.11-0.11-0.24-0.32
				c-0.06-0.09-0.09-0.16-0.09-0.22c0-0.04,0.04-0.13,0.12-0.28c-0.17-0.64-0.49-1.42-0.94-2.35c-0.29,0.73-0.59,1.4-0.89,2.01
				c0.19,0.22,0.29,0.37,0.29,0.44c0,0.06-0.07,0.1-0.2,0.11c-0.28,0.03-0.52,0.18-0.71,0.44c-0.02,0.08-0.06,0.13-0.12,0.13
				c-0.09,0-0.23-0.08-0.42-0.25c-0.06-0.05-0.09-0.09-0.09-0.13c0-0.03,0.02-0.07,0.07-0.11c0.18-0.16,0.39-0.31,0.62-0.45
				c0.5-0.83,0.91-1.71,1.23-2.63c-0.33-0.72-0.74-1.23-1.23-1.51c-0.08-0.05-0.16-0.07-0.23-0.07c-0.1,0-0.21,0.05-0.32,0.16
				c-0.11,0.11-0.21,0.23-0.32,0.34c-0.06,0.07-0.12,0.1-0.18,0.1c-0.05,0-0.07-0.02-0.07-0.07c0-0.02,0.01-0.05,0.02-0.09
				c0.36-0.73,0.71-1.09,1.04-1.08c0.39,0.01,0.9,0.5,1.53,1.46c0.15-0.35,0.23-0.67,0.23-0.95c0-0.15,0.02-0.22,0.06-0.22
				c0.04,0,0.13,0.06,0.28,0.17c0.04,0.03,0.06,0.11,0.06,0.22C20.03,7,19.9,7.41,19.66,8.09c0.47,0.92,0.83,1.76,1.08,2.52
				c0.95-1.58,1.81-2.81,2.57-3.7c0.09-0.22,0.21-0.43,0.35-0.64c0.06-0.09,0.13-0.14,0.21-0.14C24,6.13,24.22,6.26,24.54,6.52z"/>
			<path class="st0" d="M24.99,9.01c-0.06,0.36-0.23,0.97-0.51,1.82c0.08-0.07,0.19-0.2,0.32-0.38c0.02-0.02,0.04-0.04,0.06-0.04
				c0.04,0,0.05,0.04,0.02,0.11c-0.01,0.03-0.13,0.21-0.34,0.55c-0.16,0.26-0.28,0.49-0.36,0.69c-0.02,0.06-0.07,0.09-0.13,0.09
				c-0.06,0-0.15-0.03-0.26-0.09c-0.07-0.04-0.11-0.07-0.11-0.09c0-0.02,0.01-0.05,0.04-0.1c0.15-0.26,0.31-0.69,0.49-1.29
				c0.17-0.58,0.27-1.02,0.29-1.3c0.01-0.12,0-0.18-0.04-0.18c-0.02,0-0.07,0.03-0.13,0.09l-0.25,0.23
				C24,9.21,23.95,9.22,23.95,9.14c0-0.02,0.01-0.05,0.04-0.08c0.13-0.18,0.26-0.35,0.4-0.51c0.04-0.05,0.08-0.07,0.13-0.07
				c0.04,0,0.11,0.03,0.19,0.09c0.12,0.03,0.19,0.05,0.21,0.06c0.06,0.04,0.09,0.11,0.09,0.21C25.01,8.9,25,8.95,24.99,9.01z
				 M25.56,7.24c0.04,0.03,0.06,0.07,0.06,0.11c0,0.08-0.12,0.2-0.35,0.36c-0.15,0.1-0.3,0.14-0.45,0.11
				c-0.08-0.02-0.15-0.05-0.21-0.09c-0.02-0.02-0.03-0.03-0.04-0.05c-0.01-0.02-0.01-0.03-0.01-0.04c0.01-0.01,0.02-0.01,0.05-0.01
				c0.25-0.22,0.41-0.37,0.49-0.47c0.06-0.07,0.11-0.11,0.13-0.11C25.29,7.07,25.4,7.13,25.56,7.24z"/>
			<path class="st0" d="M28.65,5.49c0.04,0.03,0.05,0.06,0.05,0.08c0,0.05-0.03,0.08-0.09,0.08c-0.03,0-0.06-0.01-0.08-0.02
				c-0.12-0.06-0.22-0.09-0.28-0.09c-0.17,0-0.36,0.16-0.56,0.49c-0.73,1.2-1.26,2.74-1.57,4.63c-0.01,0.05-0.02,0.12-0.04,0.21
				c0.06-0.06,0.15-0.17,0.28-0.32c0.07-0.08,0.12-0.13,0.15-0.13c0.07,0,0.08,0.04,0.02,0.13c-0.26,0.37-0.43,0.76-0.51,1.16
				c-0.03,0.1-0.07,0.15-0.11,0.15c-0.02,0-0.05-0.01-0.09-0.04c-0.14-0.09-0.22-0.15-0.23-0.16c-0.05-0.05-0.08-0.12-0.08-0.21
				c0-0.04,0.01-0.1,0.02-0.16c0.31-1.72,0.72-3.18,1.21-4.39c0.37-0.91,0.71-1.5,1-1.77c0.08-0.08,0.16-0.11,0.24-0.11
				c0.07,0,0.17,0.05,0.28,0.14C28.39,5.27,28.52,5.37,28.65,5.49z"/>
			<path class="st0" d="M30.23,5.49c0.04,0.03,0.05,0.06,0.05,0.08c0,0.05-0.03,0.08-0.09,0.08c-0.03,0-0.06-0.01-0.08-0.02
				c-0.12-0.06-0.22-0.09-0.28-0.09c-0.17,0-0.36,0.16-0.56,0.49c-0.73,1.2-1.26,2.74-1.57,4.63c-0.01,0.05-0.02,0.12-0.04,0.21
				c0.06-0.06,0.15-0.17,0.28-0.32c0.07-0.08,0.12-0.13,0.15-0.13c0.07,0,0.08,0.04,0.02,0.13c-0.26,0.37-0.43,0.76-0.51,1.16
				c-0.03,0.1-0.07,0.15-0.11,0.15c-0.02,0-0.05-0.01-0.09-0.04c-0.14-0.09-0.22-0.15-0.23-0.16c-0.05-0.05-0.08-0.12-0.08-0.21
				c0-0.04,0.01-0.1,0.02-0.16c0.31-1.72,0.72-3.18,1.21-4.39c0.37-0.91,0.71-1.5,1-1.77c0.08-0.08,0.16-0.11,0.24-0.11
				c0.07,0,0.17,0.05,0.28,0.14C29.96,5.27,30.09,5.37,30.23,5.49z"/>
			<path class="st0" d="M30.68,10.61c-0.66,0.84-1.12,1.26-1.38,1.26c-0.13,0-0.29-0.09-0.48-0.26c-0.2-0.09-0.3-0.22-0.3-0.38
				c0-0.03,0-0.06,0.01-0.09c0.05-0.37,0.15-0.78,0.3-1.23c-0.1-0.05-0.15-0.1-0.15-0.15c0-0.04,0.03-0.06,0.09-0.06
				c0.04,0,0.09,0.01,0.13,0.04c0.24-0.54,0.46-0.92,0.65-1.15c0.12-0.15,0.24-0.23,0.34-0.23c0.05,0,0.16,0.04,0.34,0.12
				c-0.01-0.08,0.01-0.13,0.07-0.14c0,0,0.07,0,0.19,0c0.12,0,0.17,0.02,0.17,0.06c0,0.01,0,0.03-0.01,0.07
				c-0.01,0.04-0.01,0.07-0.01,0.11c0,0.1,0,0.22,0,0.36c0,0.14,0,0.24,0,0.29c0,0.33-0.09,0.57-0.28,0.7
				c-0.17,0.12-0.36,0.18-0.57,0.18c-0.11,0-0.29-0.03-0.55-0.09c-0.05,0.08-0.1,0.25-0.15,0.49c-0.08,0.31-0.11,0.58-0.11,0.82
				c0,0.14,0.05,0.21,0.13,0.21c0.03,0,0.07-0.01,0.13-0.02c0.31-0.11,0.75-0.45,1.31-1.01c0.04-0.03,0.07-0.05,0.11-0.05
				c0.05,0,0.08,0.02,0.08,0.07C30.72,10.55,30.71,10.58,30.68,10.61z M30.21,8.82c0-0.11-0.02-0.16-0.07-0.16
				c-0.03,0-0.07,0.02-0.13,0.06c-0.26,0.21-0.5,0.59-0.7,1.12c0.05,0.01,0.15,0.02,0.28,0.02c0.22,0.01,0.38-0.04,0.49-0.15
				c0.08-0.08,0.13-0.21,0.13-0.4C30.21,9.46,30.21,9.29,30.21,8.82z"/>
			<path class="st0" d="M34.07,10.32c-0.16,0.25-0.37,0.6-0.63,1.07c-0.05,0.12-0.1,0.24-0.14,0.36c-0.04,0.08-0.09,0.13-0.15,0.13
				c-0.05,0-0.12-0.02-0.21-0.06c-0.11-0.04-0.16-0.09-0.16-0.13c0-0.02,0.02-0.06,0.05-0.13c0.18-0.36,0.33-0.8,0.47-1.33
				c0.15-0.56,0.21-0.98,0.19-1.28c-0.01-0.12-0.03-0.18-0.08-0.18c-0.04,0-0.09,0.03-0.16,0.1c-0.68,0.66-1.27,1.55-1.76,2.66
				c-0.06,0.14-0.13,0.21-0.22,0.21c-0.06,0-0.16-0.03-0.3-0.1c-0.05-0.02-0.08-0.05-0.08-0.07c0-0.01,0.01-0.05,0.04-0.11
				c0.16-0.34,0.31-0.78,0.47-1.3c0.16-0.57,0.26-1.01,0.28-1.33c0.01-0.1,0-0.15-0.01-0.15c0,0-0.04,0.04-0.11,0.11
				c-0.07,0.07-0.17,0.17-0.3,0.28c-0.02,0.02-0.05,0.04-0.08,0.04c-0.04,0-0.06-0.01-0.06-0.04c0-0.02,0.01-0.05,0.04-0.07
				c0.12-0.15,0.27-0.33,0.46-0.55c0.04-0.05,0.08-0.07,0.13-0.07c0.06,0,0.12,0.05,0.17,0.14c0.22,0.06,0.32,0.16,0.31,0.3
				c-0.03,0.3-0.18,0.83-0.46,1.61c0.18-0.35,0.44-0.74,0.79-1.17c0.35-0.43,0.6-0.68,0.77-0.76c0.08-0.04,0.14-0.06,0.18-0.06
				s0.09,0.03,0.17,0.09C33.89,8.6,34,8.73,33.99,8.91c0,0.19-0.05,0.49-0.14,0.91c-0.07,0.35-0.14,0.61-0.2,0.8
				c0.08-0.1,0.18-0.23,0.3-0.39c0.02-0.03,0.04-0.04,0.06-0.04c0.04,0,0.06,0.03,0.06,0.08C34.08,10.29,34.08,10.31,34.07,10.32z"
				/>
			<path class="st0" d="M37.55,10.32c-0.16,0.25-0.37,0.6-0.63,1.07c-0.05,0.12-0.1,0.24-0.14,0.36c-0.04,0.08-0.09,0.13-0.15,0.13
				c-0.05,0-0.12-0.02-0.21-0.06c-0.11-0.04-0.16-0.09-0.16-0.13c0-0.02,0.02-0.06,0.05-0.13c0.18-0.36,0.33-0.8,0.47-1.33
				c0.15-0.56,0.21-0.98,0.19-1.28c-0.01-0.12-0.03-0.18-0.08-0.18c-0.04,0-0.09,0.03-0.16,0.1c-0.68,0.66-1.27,1.55-1.76,2.66
				c-0.06,0.14-0.13,0.21-0.22,0.21c-0.06,0-0.16-0.03-0.3-0.1c-0.05-0.02-0.08-0.05-0.08-0.07c0-0.01,0.01-0.05,0.04-0.11
				c0.16-0.34,0.31-0.78,0.47-1.3c0.16-0.57,0.26-1.01,0.28-1.33c0.01-0.1,0-0.15-0.01-0.15c0,0-0.04,0.04-0.11,0.11
				c-0.07,0.07-0.17,0.17-0.3,0.28c-0.02,0.02-0.05,0.04-0.08,0.04c-0.04,0-0.06-0.01-0.06-0.04c0-0.02,0.01-0.05,0.04-0.07
				c0.12-0.15,0.27-0.33,0.46-0.55c0.04-0.05,0.08-0.07,0.13-0.07c0.06,0,0.12,0.05,0.17,0.14c0.22,0.06,0.32,0.16,0.31,0.3
				c-0.03,0.3-0.18,0.83-0.46,1.61c0.18-0.35,0.44-0.74,0.79-1.17c0.35-0.43,0.6-0.68,0.77-0.76c0.08-0.04,0.14-0.06,0.18-0.06
				s0.09,0.03,0.17,0.09c0.22,0.08,0.33,0.21,0.33,0.39c0,0.19-0.05,0.49-0.14,0.91c-0.07,0.35-0.14,0.61-0.2,0.8
				c0.08-0.1,0.18-0.23,0.3-0.39c0.02-0.03,0.04-0.04,0.06-0.04c0.04,0,0.06,0.03,0.06,0.08C37.56,10.29,37.56,10.31,37.55,10.32z"
				/>
			<path class="st0" d="M39.1,9.01c-0.06,0.36-0.23,0.97-0.51,1.82c0.08-0.07,0.19-0.2,0.32-0.38c0.02-0.02,0.04-0.04,0.06-0.04
				c0.04,0,0.05,0.04,0.02,0.11c-0.01,0.03-0.13,0.21-0.34,0.55c-0.16,0.26-0.28,0.49-0.36,0.69c-0.02,0.06-0.07,0.09-0.13,0.09
				c-0.06,0-0.15-0.03-0.26-0.09c-0.07-0.04-0.11-0.07-0.11-0.09c0-0.02,0.01-0.05,0.04-0.1c0.15-0.26,0.31-0.69,0.49-1.29
				c0.17-0.58,0.27-1.02,0.29-1.3c0.01-0.12,0-0.18-0.04-0.18c-0.02,0-0.07,0.03-0.13,0.09l-0.25,0.23
				c-0.09,0.08-0.13,0.09-0.13,0.01c0-0.02,0.01-0.05,0.04-0.08c0.13-0.18,0.26-0.35,0.4-0.51c0.04-0.05,0.08-0.07,0.13-0.07
				c0.04,0,0.11,0.03,0.19,0.09c0.12,0.03,0.19,0.05,0.21,0.06c0.06,0.04,0.09,0.11,0.09,0.21C39.12,8.9,39.11,8.95,39.1,9.01z
				 M39.67,7.24c0.04,0.03,0.06,0.07,0.06,0.11c0,0.08-0.12,0.2-0.35,0.36c-0.15,0.1-0.3,0.14-0.45,0.11
				c-0.08-0.02-0.15-0.05-0.21-0.09c-0.02-0.02-0.03-0.03-0.04-0.05c-0.01-0.02-0.01-0.03-0.01-0.04c0.01-0.01,0.02-0.01,0.05-0.01
				c0.25-0.22,0.41-0.37,0.49-0.47c0.06-0.07,0.11-0.11,0.13-0.11C39.4,7.07,39.51,7.13,39.67,7.24z"/>
			<path class="st0" d="M42.35,9.07c-0.25,0.69-0.42,1.27-0.51,1.73c0.04-0.04,0.09-0.1,0.16-0.17c0.07-0.08,0.11-0.12,0.12-0.14
				c0.04-0.05,0.08-0.07,0.12-0.07c0.04,0,0.06,0.02,0.06,0.06c0,0.02-0.01,0.05-0.03,0.09c-0.25,0.38-0.42,0.75-0.51,1.14
				c-0.02,0.11-0.06,0.16-0.11,0.16c-0.05,0-0.13-0.04-0.26-0.13c-0.07-0.05-0.11-0.09-0.13-0.12c-0.01-0.03-0.01-0.09,0-0.18
				c0.11-0.69,0.26-1.25,0.42-1.71c-0.23,0.38-0.55,0.8-0.96,1.26c-0.35,0.4-0.61,0.66-0.76,0.77c-0.11,0.08-0.2,0.12-0.26,0.12
				c-0.05,0-0.12-0.04-0.22-0.12c-0.14-0.09-0.21-0.2-0.21-0.36c0-0.03,0-0.06,0.01-0.1c0.05-0.4,0.22-0.86,0.53-1.39
				c0.3-0.53,0.65-0.98,1.04-1.34c0.13-0.12,0.24-0.18,0.34-0.17c0.1,0.01,0.28,0.13,0.55,0.38c0.02,0.02,0.04,0.04,0.04,0.07
				c0,0.04-0.03,0.06-0.08,0.06c-0.02,0-0.04,0-0.06-0.01c-0.19-0.08-0.35-0.08-0.46,0.01c-0.25,0.19-0.53,0.51-0.84,0.98
				c-0.36,0.54-0.57,1.03-0.64,1.46c0,0.02,0,0.04,0,0.05c0,0.07,0.03,0.1,0.08,0.1c0.09,0,0.2-0.06,0.33-0.19
				c0.3-0.29,0.63-0.66,0.97-1.11c0.35-0.46,0.58-0.81,0.68-1.04c0.07-0.17,0.12-0.29,0.14-0.36c0.03-0.12,0.07-0.18,0.11-0.18
				c0.04,0,0.13,0.06,0.28,0.17c0.06,0.05,0.1,0.09,0.1,0.13C42.39,8.93,42.38,8.99,42.35,9.07z"/>
			<path class="st0" d="M45.99,5.49c0.04,0.03,0.05,0.06,0.05,0.08c0,0.05-0.03,0.08-0.09,0.08c-0.03,0-0.06-0.01-0.08-0.02
				c-0.12-0.06-0.22-0.09-0.28-0.09c-0.17,0-0.36,0.16-0.56,0.49c-0.73,1.2-1.26,2.74-1.57,4.63c-0.01,0.05-0.02,0.12-0.04,0.21
				c0.06-0.06,0.15-0.17,0.28-0.32c0.07-0.08,0.12-0.13,0.15-0.13c0.07,0,0.08,0.04,0.02,0.13c-0.26,0.37-0.43,0.76-0.51,1.16
				c-0.03,0.1-0.07,0.15-0.11,0.15c-0.02,0-0.05-0.01-0.09-0.04c-0.14-0.09-0.22-0.15-0.23-0.16c-0.05-0.05-0.08-0.12-0.08-0.21
				c0-0.04,0.01-0.1,0.02-0.16c0.31-1.72,0.72-3.18,1.21-4.39c0.37-0.91,0.71-1.5,1-1.77c0.08-0.08,0.16-0.11,0.24-0.11
				c0.07,0,0.17,0.05,0.28,0.14C45.72,5.27,45.85,5.37,45.99,5.49z"/>
			<path class="st0" d="M49.92,7.1c-0.13,0.53-0.28,0.93-0.45,1.22c-0.08,0.13-0.16,0.2-0.23,0.2c-0.03,0-0.07-0.01-0.11-0.02
				c-0.2-0.06-0.31-0.14-0.31-0.22c0-0.04,0.03-0.07,0.09-0.09c0.24-0.36,0.38-0.78,0.42-1.28c-0.15-0.13-0.29-0.2-0.42-0.2
				c-0.28,0-0.61,0.24-1,0.74C47.56,7.92,47.26,8.47,47,9.1c-0.27,0.66-0.4,1.22-0.39,1.66c0,0.26,0.08,0.45,0.23,0.57
				c0.11,0.09,0.24,0.14,0.38,0.14c0.08,0,0.17-0.02,0.28-0.05c0.26-0.08,0.56-0.24,0.9-0.47c0.32-0.22,0.59-0.45,0.81-0.68
				c0.07-0.07,0.11-0.17,0.12-0.28c0.01-0.06,0.04-0.09,0.08-0.09c0.04,0,0.07,0.02,0.08,0.07c0.1,0.24,0.15,0.41,0.15,0.51
				c0,0.09-0.04,0.17-0.11,0.25c-0.05,0.05-0.16,0.14-0.34,0.28c-0.57,0.43-1.06,0.7-1.47,0.8c-0.13,0.03-0.24,0.05-0.35,0.05
				c-0.22,0-0.39-0.07-0.51-0.22c-0.53-0.2-0.79-0.5-0.79-0.9c0-0.65,0.17-1.35,0.51-2.1c0.29-0.65,0.66-1.22,1.09-1.72
				c0.42-0.47,0.75-0.72,1.01-0.74c0.09-0.01,0.2,0.03,0.33,0.12c0.02,0.01,0.14,0.11,0.38,0.3c0.01-0.11,0.05-0.16,0.11-0.16
				c0.06,0,0.17,0.06,0.33,0.18c0.1,0.08,0.15,0.15,0.15,0.22C49.97,6.89,49.95,6.98,49.92,7.1z"/>
			<path class="st0" d="M53.24,5.49c0.04,0.03,0.05,0.06,0.05,0.08c0,0.05-0.03,0.08-0.09,0.08c-0.03,0-0.06-0.01-0.08-0.02
				c-0.12-0.06-0.22-0.09-0.28-0.09c-0.17,0-0.36,0.16-0.56,0.49c-0.73,1.2-1.26,2.74-1.57,4.63c-0.01,0.05-0.02,0.12-0.04,0.21
				c0.06-0.06,0.15-0.17,0.28-0.32c0.07-0.08,0.12-0.13,0.15-0.13c0.07,0,0.08,0.04,0.02,0.13c-0.26,0.37-0.43,0.76-0.51,1.16
				c-0.03,0.1-0.07,0.15-0.11,0.15c-0.02,0-0.05-0.01-0.09-0.04c-0.14-0.09-0.22-0.15-0.23-0.16c-0.05-0.05-0.08-0.12-0.08-0.21
				c0-0.04,0.01-0.1,0.02-0.16c0.31-1.72,0.72-3.18,1.21-4.39c0.37-0.91,0.71-1.5,1-1.77c0.08-0.08,0.16-0.11,0.24-0.11
				c0.07,0,0.17,0.05,0.28,0.14C52.97,5.27,53.1,5.37,53.24,5.49z"/>
			<path class="st0" d="M54.18,9.2c-0.01,0.24-0.06,0.56-0.17,0.95c-0.18,0.63-0.42,1.11-0.74,1.46c-0.17,0.18-0.36,0.28-0.57,0.28
				c-0.08,0-0.18-0.02-0.31-0.05c-0.25-0.02-0.46-0.1-0.62-0.24c-0.17-0.16-0.25-0.36-0.24-0.6c0.01-0.29,0.11-0.69,0.3-1.2
				c0.2-0.56,0.42-0.96,0.64-1.21c0.11-0.12,0.19-0.18,0.26-0.18c0.09,0,0.24,0.09,0.45,0.28c0.06-0.03,0.17-0.08,0.35-0.15
				c0.09-0.03,0.16-0.04,0.2-0.04c0.11,0,0.22,0.1,0.35,0.3C54.14,8.92,54.18,9.05,54.18,9.2z M53.71,9.32
				c0.02-0.18,0.03-0.3,0.03-0.34c0-0.11-0.04-0.17-0.11-0.17c-0.03,0-0.06,0.01-0.11,0.02L52.9,9.08
				c-0.07,0.03-0.11,0.04-0.13,0.04c-0.02,0-0.04-0.03-0.06-0.08c-0.16,0.19-0.3,0.47-0.44,0.83c-0.11,0.28-0.18,0.54-0.22,0.76
				c-0.03,0.15-0.04,0.29-0.04,0.41c0,0.42,0.13,0.62,0.38,0.61c0.1,0,0.21-0.04,0.33-0.12c0.23-0.15,0.44-0.46,0.64-0.92
				C53.55,10.18,53.67,9.75,53.71,9.32z"/>
			<path class="st0" d="M56.76,6.6c0.08,0.04,0.11,0.09,0.11,0.14c0,0.04-0.03,0.05-0.08,0.05c-0.01,0-0.03,0-0.05-0.01
				c-0.02,0-0.04-0.01-0.05-0.01c-0.1,0-0.23,0.11-0.37,0.34c-0.13,0.2-0.31,0.63-0.54,1.3c-0.02,0.06-0.03,0.09-0.02,0.1
				c0.01,0.02,0.04,0.03,0.11,0.03c0.16,0.01,0.37,0.01,0.64-0.02c0.09-0.01,0.14,0.03,0.14,0.12c0,0.06-0.04,0.1-0.11,0.11
				c-0.06,0.01-0.35,0.03-0.89,0.07c-0.32,0.95-0.52,1.75-0.59,2.4c0,0.04,0,0.07,0,0.09c0,0.09,0.02,0.14,0.07,0.14
				c0.07,0,0.29-0.18,0.66-0.53c0.04-0.04,0.08-0.06,0.13-0.06c0.04,0,0.06,0.01,0.06,0.04c0.01,0.03,0,0.07-0.04,0.11
				c-0.22,0.29-0.43,0.53-0.64,0.74c-0.09,0.08-0.16,0.13-0.22,0.13c-0.06,0-0.15-0.05-0.28-0.14c-0.15-0.04-0.23-0.12-0.23-0.24
				c0-0.02,0-0.04,0.01-0.06c0.1-0.7,0.3-1.55,0.59-2.57c-0.14-0.02-0.27-0.04-0.39-0.06c-0.05-0.01-0.08-0.04-0.08-0.1
				c0-0.06,0.03-0.1,0.08-0.11c0.05-0.01,0.15-0.04,0.3-0.09c0.09-0.03,0.18-0.07,0.26-0.12c0.29-0.89,0.52-1.47,0.68-1.74
				c0.09-0.15,0.2-0.23,0.3-0.23C56.41,6.44,56.56,6.49,56.76,6.6z"/>
			<path class="st0" d="M59.63,5.49c0.04,0.03,0.05,0.06,0.05,0.09c0,0.05-0.03,0.07-0.09,0.07c-0.03,0-0.06-0.01-0.08-0.02
				c-0.12-0.06-0.22-0.09-0.28-0.09c-0.16,0-0.35,0.16-0.55,0.49c-0.71,1.16-1.24,2.68-1.58,4.56c0.44-0.84,0.94-1.52,1.51-2.02
				c0.12-0.11,0.21-0.16,0.27-0.16c0.02,0,0.08,0.04,0.2,0.11c0.14,0.06,0.22,0.1,0.24,0.11c0.07,0.06,0.11,0.17,0.11,0.32
				c0,0.04,0,0.09-0.01,0.14c-0.05,0.48-0.18,1.06-0.41,1.74c0.08-0.11,0.22-0.28,0.4-0.5c0.04-0.05,0.08-0.07,0.11-0.07
				c0.03,0,0.04,0.02,0.04,0.05c0,0.04-0.02,0.09-0.05,0.14c-0.16,0.23-0.36,0.56-0.62,1c-0.02,0.04-0.07,0.16-0.16,0.34
				c-0.04,0.09-0.08,0.13-0.15,0.13c-0.07,0-0.17-0.05-0.3-0.14c-0.05-0.04-0.06-0.1-0.03-0.18c0.46-1.17,0.71-2.04,0.74-2.61
				c0.01-0.16-0.01-0.25-0.07-0.25c-0.04,0-0.11,0.05-0.22,0.14c-0.21,0.17-0.46,0.46-0.76,0.89c-0.4,0.56-0.71,1.13-0.93,1.72
				c-0.06,0.17-0.11,0.25-0.17,0.25c-0.05,0-0.14-0.06-0.27-0.17c-0.07-0.06-0.09-0.15-0.07-0.28c0.31-1.71,0.72-3.18,1.22-4.39
				c0.37-0.9,0.71-1.49,1.01-1.77c0.08-0.07,0.15-0.11,0.22-0.11c0.08,0,0.17,0.04,0.29,0.13C59.36,5.26,59.5,5.37,59.63,5.49z"/>
			<path class="st0" d="M61.01,9.01c-0.06,0.36-0.23,0.97-0.51,1.82c0.08-0.07,0.19-0.2,0.32-0.38c0.02-0.02,0.04-0.04,0.06-0.04
				c0.04,0,0.05,0.04,0.02,0.11c-0.01,0.03-0.13,0.21-0.34,0.55c-0.16,0.26-0.28,0.49-0.36,0.69c-0.02,0.06-0.07,0.09-0.13,0.09
				c-0.06,0-0.15-0.03-0.26-0.09c-0.07-0.04-0.11-0.07-0.11-0.09c0-0.02,0.01-0.05,0.04-0.1c0.15-0.26,0.31-0.69,0.49-1.29
				c0.17-0.58,0.27-1.02,0.29-1.3c0.01-0.12,0-0.18-0.04-0.18c-0.02,0-0.07,0.03-0.13,0.09L60.1,9.13
				c-0.09,0.08-0.13,0.09-0.13,0.01c0-0.02,0.01-0.05,0.04-0.08c0.13-0.18,0.26-0.35,0.4-0.51c0.04-0.05,0.08-0.07,0.13-0.07
				c0.04,0,0.11,0.03,0.19,0.09c0.12,0.03,0.19,0.05,0.21,0.06c0.06,0.04,0.09,0.11,0.09,0.21C61.02,8.9,61.02,8.95,61.01,9.01z
				 M61.58,7.24c0.04,0.03,0.06,0.07,0.06,0.11c0,0.08-0.12,0.2-0.35,0.36c-0.15,0.1-0.3,0.14-0.45,0.11
				c-0.08-0.02-0.15-0.05-0.21-0.09c-0.02-0.02-0.03-0.03-0.04-0.05c-0.01-0.02-0.01-0.03-0.01-0.04c0.01-0.01,0.02-0.01,0.05-0.01
				c0.25-0.22,0.41-0.37,0.49-0.47c0.06-0.07,0.11-0.11,0.13-0.11C61.31,7.07,61.42,7.13,61.58,7.24z"/>
			<path class="st0" d="M64.51,10.32c-0.16,0.25-0.37,0.6-0.63,1.07c-0.05,0.12-0.1,0.24-0.14,0.36c-0.04,0.08-0.09,0.13-0.15,0.13
				c-0.05,0-0.12-0.02-0.21-0.06c-0.11-0.04-0.16-0.09-0.16-0.13c0-0.02,0.02-0.06,0.05-0.13c0.18-0.36,0.33-0.8,0.47-1.33
				c0.15-0.56,0.21-0.98,0.19-1.28c-0.01-0.12-0.03-0.18-0.08-0.18c-0.04,0-0.09,0.03-0.16,0.1c-0.68,0.66-1.27,1.55-1.76,2.66
				c-0.06,0.14-0.13,0.21-0.22,0.21c-0.06,0-0.16-0.03-0.3-0.1c-0.05-0.02-0.08-0.05-0.08-0.07c0-0.01,0.01-0.05,0.04-0.11
				c0.16-0.34,0.31-0.78,0.47-1.3c0.16-0.57,0.26-1.01,0.28-1.33c0.01-0.1,0-0.15-0.01-0.15c0,0-0.04,0.04-0.11,0.11
				c-0.07,0.07-0.17,0.17-0.3,0.28c-0.02,0.02-0.05,0.04-0.08,0.04c-0.04,0-0.06-0.01-0.06-0.04c0-0.02,0.01-0.05,0.04-0.07
				c0.12-0.15,0.27-0.33,0.46-0.55c0.04-0.05,0.08-0.07,0.13-0.07c0.06,0,0.12,0.05,0.17,0.14c0.22,0.06,0.32,0.16,0.31,0.3
				c-0.03,0.3-0.18,0.83-0.46,1.61c0.18-0.35,0.44-0.74,0.79-1.17c0.35-0.43,0.6-0.68,0.77-0.76c0.08-0.04,0.14-0.06,0.18-0.06
				s0.09,0.03,0.17,0.09c0.22,0.08,0.33,0.21,0.33,0.39c0,0.19-0.05,0.49-0.14,0.91c-0.07,0.35-0.14,0.61-0.2,0.8
				c0.08-0.1,0.18-0.23,0.3-0.39c0.02-0.03,0.04-0.04,0.06-0.04c0.04,0,0.06,0.03,0.06,0.08C64.52,10.29,64.52,10.31,64.51,10.32z"
				/>
			<path class="st0" d="M67.76,8.9c-0.83,4.3-1.9,6.44-3.23,6.44c-0.48,0-0.99-0.26-1.55-0.79c-0.05-0.05-0.08-0.1-0.08-0.15
				c0-0.08,0.04-0.12,0.11-0.12c0.04,0,0.07,0.01,0.11,0.04c0.44,0.37,0.83,0.56,1.18,0.56c1.11,0,2.04-1.63,2.78-4.9
				c-0.45,0.77-0.84,1.33-1.18,1.66c-0.13,0.14-0.25,0.21-0.36,0.21c-0.1,0-0.22-0.05-0.36-0.16c-0.26-0.13-0.38-0.33-0.37-0.62
				c0.02-0.35,0.15-0.79,0.41-1.31c0.25-0.51,0.51-0.89,0.78-1.15c0.15-0.15,0.29-0.22,0.42-0.22c0.09,0,0.19,0.04,0.3,0.12
				c0.02,0.01,0.12,0.11,0.32,0.29c0.04,0.03,0.06,0.07,0.06,0.11c0,0.05-0.03,0.07-0.1,0.07c-0.04,0-0.09-0.01-0.14-0.04
				c-0.08-0.04-0.16-0.06-0.24-0.06c-0.11,0-0.22,0.04-0.31,0.12c-0.2,0.17-0.4,0.45-0.62,0.84c-0.23,0.43-0.38,0.81-0.43,1.17
				c-0.01,0.09-0.02,0.18-0.02,0.25c0,0.2,0.05,0.3,0.16,0.3c0.07,0,0.15-0.04,0.23-0.11c0.32-0.28,0.64-0.67,0.95-1.19
				c0.29-0.48,0.5-0.92,0.63-1.32c0.05-0.14,0.07-0.28,0.07-0.41c0-0.1,0.02-0.15,0.07-0.15c0.05,0,0.15,0.06,0.3,0.17
				C67.77,8.61,67.8,8.73,67.76,8.9z"/>
		</g>
		<g>
			<path class="st0" d="M33.78,15.21l-0.03,0.11c-0.09,0.02-0.16,0.03-0.22,0.03c-0.05,0-0.14-0.01-0.27-0.02
				c-0.09-0.01-0.18-0.01-0.25-0.01c-0.13,0-0.26,0.01-0.4,0.03l0.03-0.11c0.13-0.01,0.23-0.04,0.28-0.08
				c0.04-0.03,0.08-0.08,0.11-0.15c0.03-0.07,0.1-0.32,0.21-0.75l0.25-1.03l0.01-0.05c-0.08,0-0.13-0.01-0.17-0.01
				c-0.24,0-0.43,0.03-0.57,0.08c-0.14,0.05-0.25,0.13-0.32,0.23c-0.07,0.1-0.11,0.2-0.11,0.32c0,0.04,0.01,0.08,0.02,0.11
				c0.01,0.02,0.04,0.06,0.09,0.11c0.04,0.05,0.07,0.09,0.07,0.13c0,0.04-0.01,0.06-0.04,0.09c-0.03,0.02-0.06,0.04-0.09,0.04
				c-0.05,0-0.1-0.03-0.13-0.08c-0.05-0.08-0.07-0.17-0.07-0.29c0-0.16,0.05-0.31,0.15-0.46c0.1-0.15,0.23-0.26,0.4-0.35
				c0.17-0.08,0.38-0.12,0.62-0.12c0.12,0,0.3,0.02,0.56,0.05c0.18,0.02,0.31,0.03,0.39,0.03c0.08,0,0.14-0.01,0.17-0.04
				c0.03-0.03,0.05-0.06,0.05-0.11c0-0.01,0-0.03-0.01-0.05c0-0.02-0.01-0.04-0.01-0.05c0-0.04,0.01-0.06,0.03-0.09
				c0.02-0.02,0.05-0.03,0.08-0.03c0.04,0,0.07,0.01,0.1,0.04c0.03,0.03,0.04,0.07,0.04,0.11c0,0.1-0.05,0.18-0.16,0.25
				c-0.1,0.07-0.28,0.11-0.52,0.11c-0.09,0-0.18,0-0.28-0.01c-0.01,0.05-0.05,0.2-0.12,0.47l-0.17,0.67l-0.1,0.41l-0.11,0.47
				c0.09,0.01,0.16,0.02,0.22,0.02C33.59,15.24,33.68,15.23,33.78,15.21z"/>
			<path class="st0" d="M34.54,15.32h-0.29l0.14-0.52c0.07-0.26,0.12-0.5,0.17-0.73c0.01-0.06,0.02-0.09,0.02-0.11
				c0-0.03-0.01-0.05-0.04-0.05c-0.02,0-0.05,0.01-0.09,0.04c-0.04,0.03-0.11,0.09-0.22,0.2l-0.06-0.07
				c0.12-0.13,0.25-0.23,0.37-0.3c0.12-0.07,0.22-0.1,0.28-0.1c0.02,0,0.04,0.01,0.06,0.02c0.01,0.01,0.02,0.02,0.02,0.04
				c0,0.02-0.01,0.06-0.03,0.13l-0.08,0.35c0.13-0.21,0.28-0.38,0.44-0.53c0.08-0.07,0.15-0.1,0.2-0.1c0.04,0,0.07,0.01,0.1,0.04
				c0.03,0.03,0.04,0.05,0.04,0.09c0,0.04-0.01,0.06-0.04,0.09c-0.03,0.02-0.09,0.05-0.19,0.09c-0.1,0.03-0.17,0.07-0.23,0.12
				c-0.06,0.04-0.13,0.11-0.2,0.21c-0.07,0.09-0.12,0.17-0.15,0.24c-0.03,0.07-0.07,0.23-0.13,0.48L34.54,15.32z"/>
			<path class="st0" d="M36.39,14.83l0.06,0.09c-0.32,0.3-0.59,0.45-0.81,0.45c-0.09,0-0.16-0.03-0.21-0.09
				c-0.05-0.06-0.07-0.16-0.07-0.3c0-0.28,0.08-0.55,0.25-0.83c0.19-0.31,0.41-0.47,0.68-0.47c0.09,0,0.16,0.02,0.21,0.07
				c0.05,0.05,0.07,0.11,0.07,0.19c0,0.08-0.03,0.17-0.09,0.25c-0.06,0.08-0.16,0.17-0.31,0.25c-0.07,0.04-0.24,0.12-0.48,0.23
				c-0.01,0.07-0.02,0.14-0.02,0.2c0,0.09,0.01,0.16,0.04,0.19c0.03,0.04,0.07,0.05,0.13,0.05c0.05,0,0.11-0.01,0.17-0.04
				C36.1,15.03,36.22,14.95,36.39,14.83z M35.71,14.55c0.21-0.09,0.36-0.19,0.47-0.3c0.07-0.07,0.11-0.15,0.11-0.22
				c0-0.06-0.01-0.1-0.04-0.13c-0.03-0.03-0.07-0.05-0.11-0.05c-0.05,0-0.09,0.02-0.14,0.05c-0.06,0.05-0.11,0.12-0.15,0.22
				C35.77,14.26,35.73,14.4,35.71,14.55z"/>
			<path class="st0" d="M36.78,14.14l-0.07-0.07c0.17-0.16,0.3-0.26,0.4-0.32c0.1-0.05,0.18-0.08,0.25-0.08
				c0.03,0,0.05,0.01,0.06,0.02c0.02,0.01,0.02,0.03,0.02,0.04c0,0.01,0,0.03-0.01,0.06l-0.09,0.39c0.13-0.15,0.3-0.28,0.5-0.41
				c0.11-0.07,0.19-0.1,0.26-0.1c0.05,0,0.09,0.02,0.12,0.05c0.03,0.03,0.04,0.08,0.04,0.14c0,0.04-0.01,0.09-0.02,0.14
				c-0.02,0.08-0.07,0.27-0.16,0.55c-0.08,0.26-0.12,0.44-0.12,0.53c0,0.03,0,0.05,0.01,0.06c0.01,0.01,0.02,0.02,0.03,0.02
				c0.04,0,0.1-0.04,0.18-0.11c0.06-0.05,0.11-0.1,0.17-0.14l0.05,0.07c-0.12,0.13-0.24,0.24-0.37,0.32
				c-0.08,0.05-0.15,0.08-0.2,0.08c-0.05,0-0.09-0.02-0.11-0.05c-0.03-0.04-0.04-0.09-0.04-0.17c0-0.12,0.07-0.4,0.22-0.86
				c0.04-0.16,0.07-0.26,0.07-0.28c0-0.04-0.02-0.06-0.07-0.06c-0.05,0-0.12,0.03-0.2,0.08c-0.12,0.08-0.22,0.17-0.3,0.28
				c-0.05,0.07-0.09,0.18-0.13,0.33l-0.16,0.68h-0.29c0.05-0.19,0.1-0.38,0.14-0.56l0.17-0.74c0.01-0.03,0.01-0.05,0.01-0.06
				c0-0.03-0.01-0.05-0.04-0.05c-0.02,0-0.05,0.01-0.09,0.04C36.92,14,36.85,14.06,36.78,14.14z"/>
			<path class="st0" d="M40.04,14.92l0.05,0.07c-0.17,0.15-0.3,0.24-0.39,0.29c-0.12,0.07-0.21,0.1-0.28,0.1
				c-0.03,0-0.06-0.01-0.08-0.03c-0.02-0.02-0.03-0.04-0.03-0.06s0.01-0.06,0.02-0.11l0.07-0.24c-0.16,0.17-0.28,0.28-0.39,0.34
				c-0.1,0.06-0.2,0.09-0.28,0.09c-0.07,0-0.13-0.03-0.17-0.09c-0.05-0.06-0.07-0.15-0.07-0.26c0-0.18,0.06-0.39,0.19-0.63
				c0.13-0.24,0.27-0.42,0.42-0.53c0.15-0.11,0.3-0.17,0.42-0.17c0.03,0,0.07,0,0.13,0.01c0.06-0.25,0.12-0.44,0.17-0.55
				c0.06-0.12,0.13-0.22,0.22-0.3c0.09-0.08,0.19-0.15,0.3-0.19c0.11-0.05,0.22-0.07,0.32-0.07c0.05,0,0.09,0.01,0.12,0.04
				c0.03,0.03,0.05,0.06,0.05,0.1c0,0.04-0.01,0.07-0.04,0.1c-0.03,0.03-0.07,0.04-0.12,0.04c-0.03,0-0.09-0.01-0.18-0.02
				c-0.09-0.01-0.15-0.02-0.18-0.02c-0.05,0-0.09,0.01-0.12,0.04c-0.03,0.03-0.07,0.09-0.1,0.18c-0.02,0.06-0.07,0.24-0.14,0.56
				l-0.27,1.17c-0.03,0.14-0.05,0.23-0.05,0.28c0,0.05,0.02,0.07,0.06,0.07c0.02,0,0.05-0.01,0.08-0.03
				C39.83,15.07,39.91,15.01,40.04,14.92z M39.63,13.91c-0.1-0.02-0.18-0.03-0.22-0.03c-0.09,0-0.17,0.03-0.25,0.1
				c-0.08,0.07-0.16,0.2-0.24,0.39c-0.08,0.2-0.12,0.37-0.12,0.51c0,0.07,0.02,0.12,0.05,0.16c0.04,0.04,0.08,0.06,0.12,0.06
				c0.05,0,0.12-0.02,0.19-0.07c0.1-0.07,0.18-0.16,0.24-0.26c0.03-0.06,0.08-0.22,0.14-0.48L39.63,13.91z"/>
			<path class="st0" d="M42.66,15.4l-0.15-2.09c-0.03,0.35-0.1,0.68-0.19,0.98c-0.09,0.3-0.19,0.54-0.31,0.71
				c-0.12,0.17-0.23,0.28-0.35,0.35c-0.12,0.07-0.24,0.1-0.36,0.1c-0.07,0-0.13-0.01-0.16-0.04s-0.06-0.06-0.06-0.11
				c0-0.03,0.01-0.07,0.04-0.09c0.03-0.03,0.06-0.04,0.11-0.04c0.03,0,0.08,0.01,0.13,0.02c0.05,0.01,0.1,0.02,0.13,0.02
				c0.06,0,0.12-0.02,0.19-0.07c0.1-0.07,0.2-0.19,0.3-0.36c0.1-0.17,0.18-0.42,0.26-0.73c0.08-0.31,0.12-0.61,0.14-0.91
				c-0.29,0-0.53,0.07-0.72,0.22c-0.15,0.12-0.22,0.25-0.22,0.39c0,0.06,0.03,0.14,0.1,0.23c0.04,0.05,0.06,0.09,0.06,0.12
				c0,0.03-0.01,0.06-0.03,0.08c-0.02,0.02-0.05,0.03-0.08,0.03c-0.05,0-0.09-0.03-0.13-0.09c-0.05-0.08-0.08-0.17-0.08-0.27
				c0-0.15,0.05-0.29,0.15-0.42c0.1-0.14,0.24-0.24,0.41-0.31c0.18-0.07,0.38-0.11,0.62-0.11c0.13,0,0.23-0.01,0.3-0.03
				c0,0.12-0.01,0.18-0.01,0.19c0,0.01,0,0.04,0.01,0.08l0.11,1.48c0.31-0.55,0.62-0.99,0.92-1.35c0.21-0.25,0.4-0.42,0.55-0.51
				c-0.09,0.25-0.19,0.57-0.29,0.97l-0.24,0.93c-0.01,0.05-0.03,0.13-0.05,0.23l-0.05,0.21c0.1,0.02,0.19,0.03,0.27,0.03
				c0.07,0,0.14-0.01,0.21-0.02l-0.03,0.11c-0.07,0.01-0.12,0.02-0.15,0.02c-0.05,0-0.13-0.01-0.23-0.02
				c-0.08-0.01-0.15-0.02-0.22-0.02c-0.07,0-0.14,0.01-0.23,0.04c0.07-0.19,0.15-0.44,0.22-0.75l0.15-0.59
				c0.06-0.26,0.12-0.43,0.17-0.53c-0.1,0.12-0.26,0.33-0.48,0.65c-0.17,0.25-0.37,0.57-0.58,0.96L42.66,15.4z"/>
			<path class="st0" d="M45.52,14.83l0.06,0.09c-0.32,0.3-0.59,0.45-0.81,0.45c-0.09,0-0.16-0.03-0.21-0.09
				c-0.05-0.06-0.07-0.16-0.07-0.3c0-0.28,0.08-0.55,0.25-0.83c0.19-0.31,0.41-0.47,0.68-0.47c0.09,0,0.16,0.02,0.21,0.07
				c0.05,0.05,0.07,0.11,0.07,0.19c0,0.08-0.03,0.17-0.09,0.25c-0.06,0.08-0.16,0.17-0.31,0.25c-0.07,0.04-0.24,0.12-0.48,0.23
				c-0.01,0.07-0.02,0.14-0.02,0.2c0,0.09,0.01,0.16,0.04,0.19c0.03,0.04,0.07,0.05,0.13,0.05c0.05,0,0.11-0.01,0.17-0.04
				C45.23,15.03,45.35,14.95,45.52,14.83z M44.84,14.55c0.21-0.09,0.36-0.19,0.47-0.3c0.07-0.07,0.11-0.15,0.11-0.22
				c0-0.06-0.01-0.1-0.04-0.13c-0.03-0.03-0.07-0.05-0.11-0.05c-0.05,0-0.09,0.02-0.14,0.05c-0.06,0.05-0.11,0.12-0.15,0.22
				C44.9,14.26,44.86,14.4,44.84,14.55z"/>
			<path class="st0" d="M46.87,14.83l0.06,0.09c-0.32,0.3-0.59,0.45-0.81,0.45c-0.09,0-0.16-0.03-0.21-0.09
				c-0.05-0.06-0.07-0.16-0.07-0.3c0-0.28,0.08-0.55,0.25-0.83c0.19-0.31,0.41-0.47,0.68-0.47c0.09,0,0.16,0.02,0.21,0.07
				c0.05,0.05,0.07,0.11,0.07,0.19c0,0.08-0.03,0.17-0.09,0.25c-0.06,0.08-0.16,0.17-0.31,0.25c-0.07,0.04-0.24,0.12-0.48,0.23
				c-0.01,0.07-0.02,0.14-0.02,0.2c0,0.09,0.01,0.16,0.04,0.19c0.03,0.04,0.07,0.05,0.13,0.05c0.05,0,0.11-0.01,0.17-0.04
				C46.58,15.03,46.7,14.95,46.87,14.83z M46.19,14.55c0.21-0.09,0.36-0.19,0.47-0.3c0.07-0.07,0.11-0.15,0.11-0.22
				c0-0.06-0.01-0.1-0.04-0.13c-0.03-0.03-0.07-0.05-0.11-0.05c-0.05,0-0.09,0.02-0.14,0.05c-0.06,0.05-0.11,0.12-0.15,0.22
				C46.25,14.26,46.21,14.4,46.19,14.55z"/>
			<path class="st0" d="M47.74,13.39l0.31-0.12l-0.14,0.54h0.4l-0.03,0.14h-0.4l-0.17,0.65c-0.05,0.2-0.08,0.33-0.08,0.41
				c0,0.04,0.01,0.06,0.02,0.08c0.01,0.02,0.04,0.02,0.06,0.02c0.04,0,0.1-0.02,0.18-0.07c0.11-0.06,0.21-0.13,0.31-0.22l0.07,0.09
				c-0.28,0.21-0.47,0.34-0.57,0.39c-0.1,0.05-0.17,0.07-0.23,0.07c-0.05,0-0.09-0.02-0.11-0.05c-0.03-0.03-0.04-0.09-0.04-0.17
				c0-0.09,0.02-0.23,0.07-0.43l0.2-0.77h-0.31l0.03-0.14h0.31L47.74,13.39z"/>
			<path class="st0" d="M49.32,13.69c0.12,0,0.2,0.02,0.27,0.07c0.06,0.04,0.09,0.1,0.09,0.15c0,0.03-0.01,0.07-0.04,0.09
				c-0.03,0.03-0.06,0.04-0.1,0.04c-0.02,0-0.05-0.01-0.06-0.02s-0.04-0.04-0.08-0.08c-0.06-0.08-0.13-0.13-0.19-0.13
				c-0.05,0-0.1,0.02-0.14,0.06c-0.04,0.04-0.06,0.09-0.06,0.15c0,0.05,0.01,0.1,0.04,0.15c0.03,0.05,0.09,0.13,0.2,0.24
				c0.14,0.15,0.22,0.3,0.22,0.43c0,0.14-0.06,0.26-0.17,0.36c-0.12,0.1-0.27,0.15-0.45,0.15c-0.15,0-0.27-0.03-0.34-0.09
				c-0.08-0.06-0.11-0.14-0.11-0.23c0-0.05,0.01-0.08,0.04-0.11c0.03-0.03,0.06-0.04,0.1-0.04c0.04,0,0.07,0.01,0.09,0.04
				c0.03,0.02,0.04,0.05,0.04,0.08c0,0.01,0,0.03,0,0.05c0,0.02,0,0.03,0,0.04c0,0.04,0.02,0.08,0.05,0.11
				c0.03,0.03,0.08,0.04,0.14,0.04c0.07,0,0.13-0.01,0.18-0.04s0.09-0.06,0.12-0.11c0.03-0.05,0.04-0.1,0.04-0.14
				c0-0.05-0.01-0.09-0.04-0.14c-0.03-0.05-0.09-0.12-0.19-0.23c-0.13-0.15-0.2-0.29-0.2-0.43c0-0.13,0.05-0.24,0.15-0.33
				C49.03,13.73,49.16,13.69,49.32,13.69z"/>
			<path class="st0" d="M52.19,15.21l-0.03,0.11c-0.09,0.02-0.16,0.03-0.22,0.03c-0.05,0-0.14-0.01-0.27-0.02
				c-0.09-0.01-0.18-0.01-0.25-0.01c-0.13,0-0.26,0.01-0.4,0.03l0.03-0.11c0.13-0.01,0.23-0.04,0.28-0.08
				c0.04-0.03,0.08-0.08,0.11-0.15c0.03-0.07,0.1-0.32,0.21-0.75l0.25-1.03l0.01-0.05c-0.08,0-0.13-0.01-0.17-0.01
				c-0.24,0-0.43,0.03-0.57,0.08c-0.14,0.05-0.25,0.13-0.32,0.23c-0.07,0.1-0.11,0.2-0.11,0.32c0,0.04,0.01,0.08,0.02,0.11
				c0.01,0.02,0.04,0.06,0.09,0.11c0.04,0.05,0.07,0.09,0.07,0.13c0,0.04-0.01,0.06-0.04,0.09c-0.03,0.02-0.06,0.04-0.09,0.04
				c-0.05,0-0.1-0.03-0.13-0.08c-0.05-0.08-0.07-0.17-0.07-0.29c0-0.16,0.05-0.31,0.15-0.46c0.1-0.15,0.23-0.26,0.4-0.35
				c0.17-0.08,0.38-0.12,0.62-0.12c0.12,0,0.3,0.02,0.56,0.05c0.18,0.02,0.31,0.03,0.39,0.03c0.08,0,0.14-0.01,0.17-0.04
				c0.03-0.03,0.05-0.06,0.05-0.11c0-0.01,0-0.03-0.01-0.05c0-0.02-0.01-0.04-0.01-0.05c0-0.04,0.01-0.06,0.03-0.09
				c0.02-0.02,0.05-0.03,0.08-0.03c0.04,0,0.07,0.01,0.1,0.04c0.03,0.03,0.04,0.07,0.04,0.11c0,0.1-0.05,0.18-0.16,0.25
				c-0.1,0.07-0.28,0.11-0.52,0.11c-0.09,0-0.18,0-0.28-0.01c-0.01,0.05-0.05,0.2-0.12,0.47l-0.17,0.67l-0.1,0.41l-0.11,0.47
				c0.09,0.01,0.16,0.02,0.22,0.02C52.01,15.24,52.1,15.23,52.19,15.21z"/>
			<path class="st0" d="M52.66,14.14l-0.09-0.07c0.13-0.14,0.25-0.24,0.35-0.3c0.11-0.06,0.2-0.09,0.27-0.09
				c0.04,0,0.07,0.01,0.09,0.03c0.02,0.02,0.03,0.04,0.03,0.07c0,0.04-0.04,0.2-0.13,0.48c-0.14,0.46-0.2,0.74-0.2,0.83
				c0,0.02,0,0.03,0.01,0.05c0.01,0.01,0.02,0.02,0.03,0.02c0.04,0,0.15-0.08,0.32-0.24l0.08,0.07c-0.18,0.17-0.31,0.27-0.39,0.32
				c-0.08,0.05-0.15,0.07-0.2,0.07c-0.05,0-0.08-0.01-0.11-0.04c-0.03-0.03-0.04-0.07-0.04-0.12c0-0.16,0.1-0.56,0.29-1.18
				C53,14,53,13.97,53,13.95c0-0.03-0.01-0.04-0.04-0.04c-0.03,0-0.06,0.01-0.09,0.03C52.85,13.96,52.77,14.02,52.66,14.14z
				 M53.42,12.85c0.04,0,0.07,0.01,0.1,0.04c0.03,0.03,0.04,0.06,0.04,0.1c0,0.06-0.02,0.11-0.06,0.15s-0.08,0.07-0.13,0.07
				c-0.04,0-0.07-0.01-0.1-0.04c-0.03-0.03-0.04-0.06-0.04-0.11c0-0.06,0.02-0.11,0.06-0.15C53.32,12.87,53.37,12.85,53.42,12.85z"
				/>
			<path class="st0" d="M53.6,14.13l-0.06-0.08c0.13-0.13,0.25-0.22,0.36-0.28c0.12-0.06,0.21-0.09,0.27-0.09
				c0.03,0,0.05,0.01,0.06,0.02c0.01,0.01,0.02,0.03,0.02,0.05c0,0.03-0.01,0.08-0.03,0.15c-0.03,0.11-0.05,0.19-0.06,0.26
				c0.31-0.32,0.55-0.47,0.71-0.47c0.04,0,0.07,0.01,0.1,0.03c0.02,0.02,0.03,0.06,0.03,0.11c0,0.05-0.02,0.15-0.06,0.28
				c0.15-0.15,0.28-0.26,0.38-0.33c0.11-0.06,0.19-0.1,0.25-0.1c0.05,0,0.1,0.02,0.13,0.05c0.03,0.03,0.04,0.08,0.04,0.14
				c0,0.04-0.01,0.08-0.02,0.14c-0.01,0.05-0.06,0.21-0.14,0.48c-0.1,0.33-0.15,0.53-0.15,0.6c0,0.04,0.02,0.07,0.05,0.07
				c0.02,0,0.05-0.01,0.07-0.02c0.08-0.05,0.15-0.12,0.23-0.2L55.87,15c-0.03,0.02-0.08,0.07-0.15,0.14
				c-0.1,0.09-0.17,0.15-0.21,0.17c-0.08,0.04-0.14,0.07-0.19,0.07c-0.04,0-0.07-0.02-0.1-0.06c-0.03-0.04-0.04-0.09-0.04-0.16
				c0-0.06,0.01-0.13,0.03-0.22s0.07-0.27,0.16-0.56c0.07-0.22,0.1-0.35,0.1-0.4c0-0.04-0.02-0.07-0.06-0.07
				c-0.03,0-0.08,0.02-0.13,0.05c-0.11,0.07-0.2,0.15-0.28,0.25c-0.05,0.07-0.1,0.17-0.14,0.32c-0.09,0.32-0.15,0.58-0.19,0.78
				h-0.28l0.29-1.18c0.02-0.09,0.03-0.13,0.03-0.15c0-0.02-0.01-0.04-0.02-0.05c-0.01-0.01-0.03-0.02-0.04-0.02
				c-0.03,0-0.09,0.03-0.16,0.08c-0.13,0.09-0.22,0.18-0.28,0.27s-0.1,0.22-0.14,0.39l-0.15,0.66h-0.28l0.22-0.92
				c0.06-0.27,0.1-0.41,0.1-0.44c0-0.03-0.01-0.04-0.04-0.04C53.86,13.91,53.76,13.98,53.6,14.13z"/>
			<path class="st0" d="M57.03,14.83l0.06,0.09c-0.32,0.3-0.59,0.45-0.81,0.45c-0.09,0-0.16-0.03-0.21-0.09
				c-0.05-0.06-0.07-0.16-0.07-0.3c0-0.28,0.08-0.55,0.25-0.83c0.19-0.31,0.41-0.47,0.68-0.47c0.09,0,0.16,0.02,0.21,0.07
				c0.05,0.05,0.07,0.11,0.07,0.19c0,0.08-0.03,0.17-0.09,0.25c-0.06,0.08-0.16,0.17-0.31,0.25c-0.07,0.04-0.24,0.12-0.48,0.23
				c-0.01,0.07-0.02,0.14-0.02,0.2c0,0.09,0.01,0.16,0.04,0.19c0.03,0.04,0.07,0.05,0.13,0.05c0.05,0,0.11-0.01,0.17-0.04
				C56.74,15.03,56.86,14.95,57.03,14.83z M56.35,14.55c0.21-0.09,0.36-0.19,0.47-0.3c0.07-0.07,0.11-0.15,0.11-0.22
				c0-0.06-0.01-0.1-0.04-0.13c-0.03-0.03-0.07-0.05-0.11-0.05c-0.05,0-0.09,0.02-0.14,0.05c-0.06,0.05-0.11,0.12-0.15,0.22
				C56.41,14.26,56.37,14.4,56.35,14.55z"/>
			<path class="st0" d="M58.17,14.85l0.07,0.07c-0.1,0.11-0.22,0.22-0.36,0.31c-0.14,0.09-0.25,0.14-0.34,0.14
				c-0.04,0-0.07-0.01-0.1-0.05c-0.03-0.03-0.04-0.07-0.04-0.13c0-0.1,0.04-0.32,0.12-0.64l0.21-0.85c0.08-0.31,0.14-0.51,0.19-0.62
				c0.08-0.16,0.19-0.28,0.34-0.37c0.15-0.09,0.3-0.13,0.46-0.13c0.06,0,0.1,0.01,0.13,0.04c0.03,0.03,0.05,0.06,0.05,0.1
				c0,0.04-0.02,0.08-0.05,0.1c-0.03,0.03-0.08,0.04-0.14,0.04c-0.04,0-0.09-0.01-0.16-0.02c-0.06-0.01-0.12-0.02-0.17-0.02
				c-0.05,0-0.09,0.01-0.12,0.03c-0.04,0.03-0.07,0.1-0.1,0.2c-0.03,0.1-0.08,0.29-0.15,0.59l-0.19,0.81
				c-0.1,0.41-0.14,0.62-0.14,0.64c0,0.04,0.01,0.06,0.04,0.06c0.03,0,0.07-0.02,0.12-0.05C57.95,15.04,58.06,14.95,58.17,14.85z"/>
			<path class="st0" d="M59.33,14.83l0.06,0.09c-0.32,0.3-0.59,0.45-0.81,0.45c-0.09,0-0.16-0.03-0.21-0.09
				c-0.05-0.06-0.07-0.16-0.07-0.3c0-0.28,0.08-0.55,0.25-0.83c0.19-0.31,0.41-0.47,0.68-0.47c0.09,0,0.16,0.02,0.21,0.07
				c0.05,0.05,0.07,0.11,0.07,0.19c0,0.08-0.03,0.17-0.09,0.25c-0.06,0.08-0.16,0.17-0.31,0.25c-0.07,0.04-0.24,0.12-0.48,0.23
				c-0.01,0.07-0.02,0.14-0.02,0.2c0,0.09,0.01,0.16,0.04,0.19c0.03,0.04,0.07,0.05,0.13,0.05c0.05,0,0.11-0.01,0.17-0.04
				C59.04,15.03,59.16,14.95,59.33,14.83z M58.65,14.55c0.21-0.09,0.36-0.19,0.47-0.3c0.07-0.07,0.11-0.15,0.11-0.22
				c0-0.06-0.01-0.1-0.04-0.13c-0.03-0.03-0.07-0.05-0.11-0.05c-0.05,0-0.09,0.02-0.14,0.05c-0.06,0.05-0.11,0.12-0.15,0.22
				C58.72,14.26,58.67,14.4,58.65,14.55z"/>
			<path class="st0" d="M60.51,13.69c0.12,0,0.2,0.02,0.27,0.07c0.06,0.04,0.09,0.1,0.09,0.15c0,0.03-0.01,0.07-0.04,0.09
				c-0.03,0.03-0.06,0.04-0.1,0.04c-0.02,0-0.05-0.01-0.06-0.02s-0.04-0.04-0.08-0.08c-0.06-0.08-0.13-0.13-0.19-0.13
				c-0.05,0-0.1,0.02-0.14,0.06c-0.04,0.04-0.06,0.09-0.06,0.15c0,0.05,0.01,0.1,0.04,0.15c0.03,0.05,0.09,0.13,0.2,0.24
				c0.14,0.15,0.22,0.3,0.22,0.43c0,0.14-0.06,0.26-0.17,0.36s-0.27,0.15-0.45,0.15c-0.15,0-0.27-0.03-0.34-0.09
				c-0.08-0.06-0.11-0.14-0.11-0.23c0-0.05,0.01-0.08,0.04-0.11c0.03-0.03,0.06-0.04,0.1-0.04c0.04,0,0.07,0.01,0.09,0.04
				c0.03,0.02,0.04,0.05,0.04,0.08c0,0.01,0,0.03,0,0.05c0,0.02,0,0.03,0,0.04c0,0.04,0.02,0.08,0.05,0.11
				c0.03,0.03,0.08,0.04,0.14,0.04c0.07,0,0.13-0.01,0.18-0.04s0.09-0.06,0.12-0.11c0.03-0.05,0.04-0.1,0.04-0.14
				c0-0.05-0.01-0.09-0.04-0.14c-0.03-0.05-0.09-0.12-0.19-0.23c-0.13-0.15-0.2-0.29-0.2-0.43c0-0.13,0.05-0.24,0.15-0.33
				S60.35,13.69,60.51,13.69z"/>
			<path class="st0" d="M61.78,13.69c0.12,0,0.2,0.02,0.27,0.07c0.06,0.04,0.09,0.1,0.09,0.15c0,0.03-0.01,0.07-0.04,0.09
				c-0.03,0.03-0.06,0.04-0.1,0.04c-0.02,0-0.05-0.01-0.06-0.02c-0.02-0.01-0.04-0.04-0.08-0.08c-0.06-0.08-0.13-0.13-0.19-0.13
				c-0.05,0-0.1,0.02-0.14,0.06c-0.04,0.04-0.06,0.09-0.06,0.15c0,0.05,0.01,0.1,0.04,0.15c0.03,0.05,0.09,0.13,0.2,0.24
				c0.14,0.15,0.22,0.3,0.22,0.43c0,0.14-0.06,0.26-0.17,0.36c-0.12,0.1-0.27,0.15-0.45,0.15c-0.15,0-0.27-0.03-0.34-0.09
				c-0.08-0.06-0.11-0.14-0.11-0.23c0-0.05,0.01-0.08,0.04-0.11c0.03-0.03,0.06-0.04,0.1-0.04c0.04,0,0.07,0.01,0.09,0.04
				c0.03,0.02,0.04,0.05,0.04,0.08c0,0.01,0,0.03,0,0.05c0,0.02,0,0.03,0,0.04c0,0.04,0.02,0.08,0.05,0.11
				c0.03,0.03,0.08,0.04,0.14,0.04c0.07,0,0.13-0.01,0.18-0.04s0.09-0.06,0.12-0.11c0.03-0.05,0.04-0.1,0.04-0.14
				c0-0.05-0.01-0.09-0.04-0.14c-0.03-0.05-0.09-0.12-0.19-0.23c-0.13-0.15-0.2-0.29-0.2-0.43c0-0.13,0.05-0.24,0.15-0.33
				S61.62,13.69,61.78,13.69z"/>
		</g>
	</g>
</g>
</svg>
