<?xml version="1.0" encoding="utf-8"?>
<!-- Generator: Adobe Illustrator 24.3.0, SVG Export Plug-In . SVG Version: 6.00 Build 0)  -->
<svg version="1.1" id="Layer_1" xmlns="http://www.w3.org/2000/svg" xmlns:xlink="http://www.w3.org/1999/xlink" x="0px" y="0px"
	 viewBox="0 0 31.42 26.12" style="enable-background:new 0 0 31.42 26.12;" xml:space="preserve">
<style type="text/css">
	.st0{fill:#606060;}
</style>
<g>
	<polygon class="st0" points="14.12,5.92 14.12,17.06 12.66,15.94 12.66,4.79 	"/>
	<polygon class="st0" points="12.05,4.32 12.05,15.46 10.59,14.34 10.59,3.2 	"/>
	<polygon class="st0" points="16.19,6.71 16.19,15.21 15.46,15.77 14.74,15.21 14.74,6.71 	"/>
	<polygon class="st0" points="18.26,4.89 18.26,16.03 16.81,17.15 16.81,6.01 	"/>
	<polygon class="st0" points="20.33,3.3 20.33,14.44 18.88,15.56 18.88,4.41 	"/>
</g>
<g>
	<g>
		<path class="st0" d="M6.63,18.57c0.01,0.01,0.01,0.02,0.01,0.03c0,0.03-0.02,0.04-0.06,0.04c-0.01,0-0.02,0-0.04,0
			c-0.02,0-0.03,0-0.04,0c-0.06,0-0.13,0.06-0.19,0.19c-0.26,0.51-0.43,1.14-0.51,1.89c0.03-0.06,0.07-0.13,0.12-0.23
			c0.01-0.03,0.03-0.04,0.05-0.04c0.03,0,0.04,0.02,0.04,0.05c0,0.02,0,0.03-0.01,0.06c-0.06,0.14-0.11,0.34-0.16,0.6
			c-0.01,0.06-0.04,0.09-0.08,0.09c-0.05,0-0.11-0.03-0.21-0.1c-0.04-0.03-0.07-0.06-0.08-0.08c-0.01-0.02-0.01-0.06,0-0.12
			c0.05-0.29,0.11-0.62,0.19-0.98c0.09-0.42,0.15-0.66,0.19-0.74c-0.14,0.17-0.31,0.41-0.52,0.73c-0.2,0.32-0.38,0.62-0.53,0.9
			c0.03,0.08,0.04,0.15,0.04,0.19c0,0.05-0.04,0.12-0.13,0.2c-0.05,0.04-0.08,0.06-0.09,0.06c-0.01,0-0.05-0.05-0.12-0.16
			c-0.03-0.05-0.04-0.08-0.04-0.11c0-0.02,0.02-0.06,0.06-0.14c-0.09-0.32-0.24-0.71-0.47-1.17c-0.15,0.37-0.29,0.7-0.44,1
			c0.1,0.11,0.14,0.18,0.14,0.22c0,0.03-0.03,0.05-0.1,0.06c-0.14,0.02-0.26,0.09-0.35,0.22c-0.01,0.04-0.03,0.06-0.06,0.06
			c-0.05,0-0.12-0.04-0.21-0.12C3,21.12,2.99,21.1,2.99,21.09c0-0.01,0.01-0.03,0.04-0.05c0.09-0.08,0.19-0.15,0.31-0.23
			c0.25-0.41,0.45-0.85,0.61-1.31c-0.16-0.36-0.37-0.61-0.61-0.75c-0.04-0.02-0.08-0.04-0.11-0.04c-0.05,0-0.1,0.03-0.16,0.08
			c-0.05,0.06-0.1,0.11-0.16,0.17c-0.03,0.03-0.06,0.05-0.09,0.05c-0.02,0-0.04-0.01-0.04-0.04c0-0.01,0-0.03,0.01-0.04
			c0.18-0.36,0.35-0.54,0.52-0.54c0.2,0.01,0.45,0.25,0.76,0.73c0.08-0.17,0.11-0.33,0.11-0.47c0-0.07,0.01-0.11,0.03-0.11
			c0.02,0,0.07,0.03,0.14,0.09c0.02,0.02,0.03,0.05,0.03,0.11c0,0.07-0.07,0.27-0.19,0.61c0.24,0.46,0.42,0.88,0.54,1.26
			c0.47-0.79,0.9-1.4,1.28-1.84c0.05-0.11,0.1-0.21,0.17-0.32c0.03-0.05,0.07-0.07,0.11-0.07C6.36,18.37,6.47,18.44,6.63,18.57z"/>
		<path class="st0" d="M6.85,19.81c-0.03,0.18-0.12,0.48-0.25,0.9c0.04-0.03,0.09-0.1,0.16-0.19c0.01-0.01,0.02-0.02,0.03-0.02
			c0.02,0,0.02,0.02,0.01,0.06c-0.01,0.01-0.06,0.11-0.17,0.28c-0.08,0.13-0.14,0.24-0.18,0.34c-0.01,0.03-0.03,0.05-0.07,0.05
			c-0.03,0-0.08-0.02-0.13-0.05c-0.03-0.02-0.05-0.03-0.05-0.04c0-0.01,0.01-0.03,0.02-0.05c0.07-0.13,0.15-0.34,0.24-0.64
			c0.08-0.29,0.13-0.51,0.14-0.65c0-0.06,0-0.09-0.02-0.09c-0.01,0-0.03,0.01-0.06,0.04L6.4,19.87c-0.04,0.04-0.07,0.04-0.07,0.01
			c0-0.01,0.01-0.02,0.02-0.04c0.06-0.09,0.13-0.17,0.2-0.25c0.02-0.02,0.04-0.03,0.06-0.03c0.02,0,0.05,0.01,0.09,0.04
			c0.06,0.02,0.1,0.03,0.1,0.03c0.03,0.02,0.05,0.05,0.05,0.1C6.86,19.75,6.86,19.78,6.85,19.81z M7.14,18.93
			c0.02,0.02,0.03,0.03,0.03,0.05c0,0.04-0.06,0.1-0.17,0.18c-0.08,0.05-0.15,0.07-0.22,0.06c-0.04-0.01-0.08-0.02-0.1-0.04
			c-0.01-0.01-0.02-0.02-0.02-0.03c0-0.01-0.01-0.02,0-0.02c0-0.01,0.01-0.01,0.02,0c0.12-0.11,0.2-0.18,0.24-0.23
			c0.03-0.03,0.05-0.05,0.07-0.05C7.01,18.84,7.06,18.87,7.14,18.93z"/>
		<path class="st0" d="M8.68,18.05c0.02,0.01,0.03,0.03,0.03,0.04c0,0.03-0.02,0.04-0.05,0.04c-0.01,0-0.03,0-0.04-0.01
			c-0.06-0.03-0.11-0.05-0.14-0.05c-0.08,0-0.18,0.08-0.28,0.25c-0.37,0.59-0.62,1.36-0.78,2.31c0,0.03-0.01,0.06-0.02,0.1
			c0.03-0.03,0.08-0.08,0.14-0.16c0.03-0.04,0.06-0.06,0.08-0.06c0.03,0,0.04,0.02,0.01,0.06c-0.13,0.18-0.21,0.38-0.26,0.58
			c-0.01,0.05-0.03,0.07-0.06,0.07c-0.01,0-0.02-0.01-0.04-0.02c-0.07-0.05-0.11-0.07-0.12-0.08c-0.03-0.03-0.04-0.06-0.04-0.1
			c0-0.02,0-0.05,0.01-0.08c0.16-0.85,0.36-1.58,0.6-2.18c0.19-0.45,0.35-0.75,0.5-0.88c0.04-0.04,0.08-0.06,0.12-0.05
			c0.04,0,0.08,0.02,0.14,0.07C8.54,17.94,8.61,18,8.68,18.05z"/>
		<path class="st0" d="M9.46,18.05c0.02,0.01,0.03,0.03,0.03,0.04c0,0.03-0.02,0.04-0.05,0.04c-0.01,0-0.03,0-0.04-0.01
			c-0.06-0.03-0.11-0.05-0.14-0.05c-0.08,0-0.18,0.08-0.28,0.25c-0.37,0.59-0.62,1.36-0.78,2.31c0,0.03-0.01,0.06-0.02,0.1
			c0.03-0.03,0.08-0.08,0.14-0.16c0.03-0.04,0.06-0.06,0.08-0.06c0.03,0,0.04,0.02,0.01,0.06c-0.13,0.18-0.21,0.38-0.26,0.58
			c-0.01,0.05-0.03,0.07-0.06,0.07c-0.01,0-0.02-0.01-0.04-0.02c-0.07-0.05-0.11-0.07-0.12-0.08c-0.03-0.03-0.04-0.06-0.04-0.1
			c0-0.02,0-0.05,0.01-0.08c0.16-0.85,0.36-1.58,0.6-2.18c0.19-0.45,0.35-0.75,0.5-0.88c0.04-0.04,0.08-0.06,0.12-0.05
			c0.04,0,0.08,0.02,0.14,0.07C9.33,17.94,9.39,18,9.46,18.05z"/>
		<path class="st0" d="M9.69,20.6C9.36,21.02,9.13,21.23,9,21.23c-0.06,0-0.14-0.04-0.24-0.13c-0.1-0.05-0.15-0.11-0.15-0.19
			c0-0.01,0-0.03,0-0.05c0.02-0.18,0.07-0.39,0.15-0.61c-0.05-0.03-0.07-0.05-0.07-0.07c0-0.02,0.01-0.03,0.04-0.03
			c0.02,0,0.04,0.01,0.07,0.02c0.12-0.27,0.23-0.46,0.32-0.57c0.06-0.08,0.12-0.11,0.17-0.11c0.02,0,0.08,0.02,0.17,0.06
			c-0.01-0.04,0-0.06,0.03-0.07c0,0,0.03,0,0.09,0c0.06,0,0.09,0.01,0.09,0.03c0,0,0,0.02-0.01,0.03s-0.01,0.04-0.01,0.05
			c0,0.05,0,0.11,0,0.18c0,0.07,0,0.12,0,0.14c0,0.17-0.05,0.28-0.14,0.35c-0.08,0.06-0.18,0.09-0.28,0.09
			c-0.06,0-0.15-0.01-0.27-0.04c-0.02,0.04-0.05,0.12-0.08,0.24c-0.04,0.15-0.05,0.29-0.05,0.41c0,0.07,0.02,0.1,0.07,0.1
			c0.02,0,0.04,0,0.06-0.01c0.16-0.06,0.37-0.22,0.65-0.5c0.02-0.02,0.03-0.03,0.05-0.03c0.03,0,0.04,0.01,0.04,0.04
			C9.71,20.57,9.7,20.59,9.69,20.6z M9.45,19.71c0-0.05-0.01-0.08-0.03-0.08c-0.01,0-0.04,0.01-0.06,0.03
			C9.22,19.77,9.1,19.96,9,20.23c0.03,0,0.07,0.01,0.14,0.01c0.11,0,0.19-0.02,0.24-0.07c0.04-0.04,0.06-0.11,0.07-0.2
			C9.45,20.03,9.45,19.95,9.45,19.71z"/>
		<path class="st0" d="M11.37,20.46c-0.08,0.12-0.19,0.3-0.31,0.53c-0.02,0.06-0.05,0.12-0.07,0.18c-0.02,0.04-0.04,0.06-0.07,0.06
			c-0.02,0-0.06-0.01-0.11-0.03c-0.05-0.02-0.08-0.04-0.08-0.06c0-0.01,0.01-0.03,0.03-0.06c0.09-0.18,0.17-0.4,0.23-0.66
			c0.07-0.28,0.11-0.49,0.09-0.64c0-0.06-0.02-0.09-0.04-0.09c-0.02,0-0.04,0.02-0.08,0.05c-0.34,0.33-0.63,0.77-0.88,1.32
			c-0.03,0.07-0.07,0.1-0.11,0.1c-0.03,0-0.08-0.02-0.15-0.05c-0.03-0.01-0.04-0.02-0.04-0.03c0-0.01,0.01-0.02,0.02-0.06
			c0.08-0.17,0.16-0.39,0.23-0.65c0.08-0.28,0.13-0.5,0.14-0.66c0-0.05,0-0.07,0-0.07c0,0-0.02,0.02-0.06,0.05
			c-0.04,0.04-0.09,0.08-0.15,0.14c-0.01,0.01-0.03,0.02-0.04,0.02c-0.02,0-0.03-0.01-0.03-0.02c0-0.01,0.01-0.02,0.02-0.04
			c0.06-0.07,0.13-0.17,0.23-0.28c0.02-0.02,0.04-0.03,0.06-0.03c0.03,0,0.06,0.02,0.08,0.07c0.11,0.03,0.16,0.08,0.15,0.15
			c-0.01,0.15-0.09,0.41-0.23,0.8c0.09-0.17,0.22-0.37,0.39-0.58c0.17-0.21,0.3-0.34,0.38-0.38c0.04-0.02,0.07-0.03,0.09-0.03
			s0.05,0.01,0.08,0.04c0.11,0.04,0.17,0.1,0.17,0.19c0,0.09-0.02,0.24-0.07,0.45c-0.04,0.17-0.07,0.31-0.1,0.4
			c0.04-0.05,0.09-0.11,0.15-0.19c0.01-0.01,0.02-0.02,0.03-0.02c0.02,0,0.03,0.01,0.03,0.04C11.38,20.44,11.38,20.45,11.37,20.46z"
			/>
		<path class="st0" d="M13.1,20.46c-0.08,0.12-0.19,0.3-0.31,0.53c-0.02,0.06-0.05,0.12-0.07,0.18c-0.02,0.04-0.04,0.06-0.07,0.06
			c-0.02,0-0.06-0.01-0.11-0.03c-0.05-0.02-0.08-0.04-0.08-0.06c0-0.01,0.01-0.03,0.03-0.06c0.09-0.18,0.17-0.4,0.23-0.66
			c0.07-0.28,0.11-0.49,0.09-0.64c0-0.06-0.02-0.09-0.04-0.09c-0.02,0-0.04,0.02-0.08,0.05c-0.34,0.33-0.63,0.77-0.88,1.32
			c-0.03,0.07-0.07,0.1-0.11,0.1c-0.03,0-0.08-0.02-0.15-0.05c-0.03-0.01-0.04-0.02-0.04-0.03c0-0.01,0.01-0.02,0.02-0.06
			c0.08-0.17,0.16-0.39,0.23-0.65c0.08-0.28,0.13-0.5,0.14-0.66c0-0.05,0-0.07,0-0.07c0,0-0.02,0.02-0.06,0.05
			c-0.04,0.04-0.09,0.08-0.15,0.14c-0.01,0.01-0.03,0.02-0.04,0.02c-0.02,0-0.03-0.01-0.03-0.02c0-0.01,0.01-0.02,0.02-0.04
			c0.06-0.07,0.13-0.17,0.23-0.28c0.02-0.02,0.04-0.03,0.06-0.03c0.03,0,0.06,0.02,0.08,0.07c0.11,0.03,0.16,0.08,0.15,0.15
			c-0.01,0.15-0.09,0.41-0.23,0.8c0.09-0.17,0.22-0.37,0.39-0.58c0.17-0.21,0.3-0.34,0.38-0.38c0.04-0.02,0.07-0.03,0.09-0.03
			s0.05,0.01,0.08,0.04c0.11,0.04,0.17,0.1,0.17,0.19c0,0.09-0.02,0.24-0.07,0.45c-0.04,0.17-0.07,0.31-0.1,0.4
			c0.04-0.05,0.09-0.11,0.15-0.19c0.01-0.01,0.02-0.02,0.03-0.02c0.02,0,0.03,0.01,0.03,0.04C13.11,20.44,13.11,20.45,13.1,20.46z"
			/>
		<path class="st0" d="M13.88,19.81c-0.03,0.18-0.12,0.48-0.25,0.9c0.04-0.03,0.09-0.1,0.16-0.19c0.01-0.01,0.02-0.02,0.03-0.02
			c0.02,0,0.02,0.02,0.01,0.06c-0.01,0.01-0.06,0.11-0.17,0.28c-0.08,0.13-0.14,0.24-0.18,0.34c-0.01,0.03-0.03,0.05-0.07,0.05
			c-0.03,0-0.08-0.02-0.13-0.05c-0.03-0.02-0.05-0.03-0.05-0.04c0-0.01,0.01-0.03,0.02-0.05c0.07-0.13,0.15-0.34,0.24-0.64
			c0.08-0.29,0.13-0.51,0.14-0.65c0-0.06,0-0.09-0.02-0.09c-0.01,0-0.03,0.01-0.06,0.04l-0.12,0.12c-0.04,0.04-0.07,0.04-0.07,0.01
			c0-0.01,0.01-0.02,0.02-0.04c0.06-0.09,0.13-0.17,0.2-0.25c0.02-0.02,0.04-0.03,0.06-0.03c0.02,0,0.05,0.01,0.09,0.04
			c0.06,0.02,0.1,0.03,0.1,0.03c0.03,0.02,0.05,0.05,0.05,0.1C13.88,19.75,13.88,19.78,13.88,19.81z M14.16,18.93
			c0.02,0.02,0.03,0.03,0.03,0.05c0,0.04-0.06,0.1-0.17,0.18c-0.08,0.05-0.15,0.07-0.22,0.06c-0.04-0.01-0.08-0.02-0.1-0.04
			c-0.01-0.01-0.02-0.02-0.02-0.03s-0.01-0.02,0-0.02c0-0.01,0.01-0.01,0.02,0c0.12-0.11,0.2-0.18,0.24-0.23
			c0.03-0.03,0.05-0.05,0.07-0.05C14.03,18.84,14.08,18.87,14.16,18.93z"/>
		<path class="st0" d="M15.49,19.84c-0.12,0.34-0.21,0.63-0.26,0.86c0.02-0.02,0.05-0.05,0.08-0.09c0.03-0.04,0.05-0.06,0.06-0.07
			c0.02-0.02,0.04-0.04,0.06-0.04c0.02,0,0.03,0.01,0.03,0.03c0,0.01-0.01,0.03-0.02,0.04c-0.13,0.19-0.21,0.38-0.25,0.57
			c-0.01,0.05-0.03,0.08-0.05,0.08c-0.02,0-0.07-0.02-0.13-0.06c-0.04-0.02-0.06-0.04-0.06-0.06c-0.01-0.01-0.01-0.04,0-0.09
			c0.06-0.34,0.13-0.62,0.21-0.85c-0.12,0.19-0.28,0.4-0.48,0.63c-0.18,0.2-0.3,0.33-0.38,0.38c-0.06,0.04-0.1,0.06-0.13,0.06
			c-0.02,0-0.06-0.02-0.11-0.06c-0.07-0.04-0.11-0.1-0.11-0.18c0-0.01,0-0.03,0-0.05c0.02-0.2,0.11-0.43,0.26-0.69
			c0.15-0.26,0.32-0.49,0.52-0.67c0.06-0.06,0.12-0.09,0.17-0.09c0.05,0,0.14,0.07,0.28,0.19c0.01,0.01,0.02,0.02,0.02,0.03
			c0,0.02-0.01,0.03-0.04,0.03c-0.01,0-0.02,0-0.03-0.01c-0.1-0.04-0.17-0.04-0.23,0c-0.13,0.09-0.27,0.26-0.42,0.49
			c-0.18,0.27-0.28,0.51-0.32,0.72c0,0.01,0,0.02,0,0.03c0,0.03,0.01,0.05,0.04,0.05c0.05,0,0.1-0.03,0.16-0.09
			c0.15-0.15,0.31-0.33,0.48-0.55c0.18-0.23,0.29-0.4,0.34-0.52c0.04-0.09,0.06-0.15,0.07-0.18c0.02-0.06,0.04-0.09,0.06-0.09
			c0.02,0,0.07,0.03,0.14,0.08c0.03,0.02,0.05,0.04,0.05,0.06C15.52,19.77,15.51,19.8,15.49,19.84z"/>
		<path class="st0" d="M17.3,18.05c0.02,0.01,0.03,0.03,0.03,0.04c0,0.03-0.02,0.04-0.05,0.04c-0.01,0-0.03,0-0.04-0.01
			c-0.06-0.03-0.11-0.05-0.14-0.05c-0.08,0-0.18,0.08-0.28,0.25c-0.37,0.59-0.62,1.36-0.78,2.31c0,0.03-0.01,0.06-0.02,0.1
			c0.03-0.03,0.08-0.08,0.14-0.16c0.03-0.04,0.06-0.06,0.08-0.06c0.03,0,0.04,0.02,0.01,0.06c-0.13,0.18-0.21,0.38-0.26,0.58
			c-0.01,0.05-0.03,0.07-0.06,0.07c-0.01,0-0.02-0.01-0.04-0.02c-0.07-0.05-0.11-0.07-0.12-0.08c-0.03-0.03-0.04-0.06-0.04-0.1
			c0-0.02,0-0.05,0.01-0.08c0.16-0.85,0.36-1.58,0.6-2.18c0.19-0.45,0.35-0.75,0.5-0.88c0.04-0.04,0.08-0.06,0.12-0.05
			c0.04,0,0.08,0.02,0.14,0.07C17.17,17.94,17.24,18,17.3,18.05z"/>
		<path class="st0" d="M19.26,18.86c-0.06,0.26-0.14,0.46-0.22,0.61c-0.04,0.07-0.08,0.1-0.11,0.1c-0.01,0-0.03,0-0.05-0.01
			c-0.1-0.03-0.15-0.07-0.15-0.11c0-0.02,0.01-0.04,0.04-0.04c0.12-0.18,0.19-0.39,0.21-0.64c-0.07-0.07-0.14-0.1-0.21-0.1
			c-0.14,0-0.3,0.12-0.5,0.37c-0.18,0.23-0.33,0.5-0.46,0.82c-0.13,0.33-0.2,0.61-0.19,0.83c0,0.13,0.04,0.22,0.11,0.29
			c0.06,0.05,0.12,0.07,0.19,0.07c0.04,0,0.09-0.01,0.14-0.02c0.13-0.04,0.28-0.12,0.45-0.23c0.16-0.11,0.3-0.22,0.4-0.34
			c0.03-0.04,0.05-0.08,0.06-0.14c0-0.03,0.02-0.04,0.04-0.04c0.02,0,0.03,0.01,0.04,0.04c0.05,0.12,0.07,0.2,0.07,0.25
			c0,0.04-0.02,0.09-0.05,0.12c-0.02,0.02-0.08,0.07-0.17,0.14c-0.28,0.21-0.53,0.35-0.73,0.4c-0.06,0.02-0.12,0.02-0.17,0.02
			c-0.11,0-0.19-0.04-0.25-0.11c-0.26-0.1-0.39-0.25-0.39-0.45c0-0.32,0.09-0.67,0.26-1.05c0.15-0.32,0.33-0.61,0.54-0.85
			c0.21-0.23,0.37-0.36,0.5-0.37c0.05,0,0.1,0.02,0.16,0.06c0.01,0.01,0.07,0.06,0.19,0.15c0.01-0.05,0.02-0.08,0.05-0.08
			c0.03,0,0.09,0.03,0.16,0.09c0.05,0.04,0.07,0.07,0.07,0.11C19.28,18.75,19.28,18.79,19.26,18.86z"/>
		<path class="st0" d="M20.91,18.05c0.02,0.01,0.03,0.03,0.03,0.04c0,0.03-0.02,0.04-0.05,0.04c-0.01,0-0.03,0-0.04-0.01
			c-0.06-0.03-0.11-0.05-0.14-0.05c-0.08,0-0.18,0.08-0.28,0.25c-0.37,0.59-0.62,1.36-0.78,2.31c0,0.03-0.01,0.06-0.02,0.1
			c0.03-0.03,0.08-0.08,0.14-0.16c0.03-0.04,0.06-0.06,0.08-0.06c0.03,0,0.04,0.02,0.01,0.06c-0.13,0.18-0.21,0.38-0.26,0.58
			c-0.01,0.05-0.03,0.07-0.06,0.07c-0.01,0-0.02-0.01-0.04-0.02c-0.07-0.05-0.11-0.07-0.12-0.08c-0.03-0.03-0.04-0.06-0.04-0.1
			c0-0.02,0-0.05,0.01-0.08c0.16-0.85,0.36-1.58,0.6-2.18c0.19-0.45,0.35-0.75,0.5-0.88c0.04-0.04,0.08-0.06,0.12-0.05
			c0.04,0,0.08,0.02,0.14,0.07C20.78,17.94,20.85,18,20.91,18.05z"/>
		<path class="st0" d="M21.38,19.9c0,0.12-0.03,0.28-0.09,0.48c-0.09,0.31-0.21,0.55-0.37,0.72c-0.08,0.09-0.18,0.14-0.28,0.14
			c-0.04,0-0.09-0.01-0.16-0.03c-0.13-0.01-0.23-0.05-0.31-0.12c-0.09-0.08-0.13-0.18-0.12-0.3c0.01-0.14,0.05-0.34,0.15-0.6
			c0.1-0.28,0.21-0.48,0.32-0.6c0.05-0.06,0.1-0.09,0.13-0.09c0.05,0,0.12,0.05,0.22,0.14c0.03-0.01,0.09-0.04,0.17-0.07
			c0.04-0.01,0.08-0.02,0.1-0.02c0.05,0,0.11,0.05,0.18,0.15C21.36,19.76,21.38,19.83,21.38,19.9z M21.15,19.96
			c0.01-0.09,0.01-0.15,0.01-0.17c0-0.06-0.02-0.08-0.05-0.08c-0.01,0-0.03,0-0.05,0.01l-0.31,0.13c-0.04,0.01-0.06,0.02-0.06,0.02
			c-0.01,0-0.02-0.01-0.03-0.04c-0.08,0.1-0.15,0.23-0.22,0.41c-0.05,0.14-0.09,0.27-0.11,0.38c-0.01,0.08-0.02,0.14-0.02,0.21
			c0,0.21,0.06,0.31,0.19,0.3c0.05,0,0.11-0.02,0.17-0.06c0.11-0.08,0.22-0.23,0.32-0.46C21.07,20.39,21.13,20.17,21.15,19.96z"/>
		<path class="st0" d="M22.66,18.61c0.04,0.02,0.06,0.04,0.06,0.07c0,0.02-0.01,0.03-0.04,0.03c-0.01,0-0.01,0-0.03,0
			c-0.01,0-0.02,0-0.03,0c-0.05,0-0.11,0.06-0.19,0.17c-0.06,0.1-0.15,0.32-0.27,0.65c-0.01,0.03-0.01,0.05-0.01,0.05
			c0,0.01,0.02,0.01,0.05,0.02c0.08,0.01,0.19,0,0.32-0.01c0.05,0,0.07,0.02,0.07,0.06c0,0.03-0.02,0.05-0.05,0.05
			c-0.03,0-0.18,0.02-0.45,0.04c-0.16,0.47-0.26,0.87-0.29,1.2c0,0.02,0,0.03,0,0.05c0,0.05,0.01,0.07,0.03,0.07
			c0.04,0,0.15-0.09,0.33-0.26c0.02-0.02,0.04-0.03,0.06-0.03c0.02,0,0.03,0.01,0.03,0.02c0,0.02,0,0.03-0.02,0.06
			c-0.11,0.14-0.22,0.27-0.32,0.37c-0.04,0.04-0.08,0.06-0.11,0.06c-0.03,0-0.08-0.02-0.14-0.07c-0.08-0.02-0.11-0.06-0.11-0.12
			c0-0.01,0-0.02,0-0.03c0.05-0.35,0.15-0.77,0.29-1.28c-0.07-0.01-0.14-0.02-0.19-0.03c-0.03,0-0.04-0.02-0.04-0.05
			c0-0.03,0.01-0.05,0.04-0.06c0.03-0.01,0.08-0.02,0.15-0.04c0.04-0.01,0.09-0.03,0.13-0.06c0.14-0.44,0.26-0.73,0.34-0.86
			c0.05-0.08,0.1-0.11,0.15-0.11C22.49,18.53,22.56,18.55,22.66,18.61z"/>
		<path class="st0" d="M24.09,18.05c0.02,0.01,0.03,0.03,0.03,0.04c0,0.02-0.02,0.04-0.05,0.04c-0.01,0-0.03,0-0.04-0.01
			c-0.06-0.03-0.11-0.05-0.14-0.05c-0.08,0-0.17,0.08-0.27,0.25c-0.35,0.58-0.62,1.33-0.79,2.27c0.22-0.42,0.47-0.76,0.75-1.01
			c0.06-0.05,0.1-0.08,0.13-0.08c0.01,0,0.04,0.02,0.1,0.06c0.07,0.03,0.11,0.05,0.12,0.06c0.03,0.03,0.05,0.08,0.05,0.16
			c0,0.02,0,0.04,0,0.07c-0.02,0.24-0.09,0.53-0.21,0.87c0.04-0.06,0.11-0.14,0.2-0.25c0.02-0.02,0.04-0.03,0.05-0.03
			s0.02,0.01,0.02,0.03c0,0.02-0.01,0.04-0.03,0.07c-0.08,0.11-0.18,0.28-0.31,0.5c-0.01,0.02-0.04,0.08-0.08,0.17
			c-0.02,0.04-0.04,0.06-0.07,0.06c-0.03,0-0.09-0.02-0.15-0.07c-0.03-0.02-0.03-0.05-0.01-0.09c0.23-0.58,0.35-1.01,0.37-1.3
			c0-0.08-0.01-0.12-0.03-0.12c-0.02,0-0.05,0.02-0.11,0.07c-0.1,0.08-0.23,0.23-0.38,0.44c-0.2,0.28-0.35,0.56-0.46,0.86
			c-0.03,0.08-0.06,0.12-0.08,0.12c-0.02,0-0.07-0.03-0.13-0.08c-0.03-0.03-0.04-0.08-0.03-0.14c0.16-0.85,0.36-1.58,0.61-2.18
			c0.19-0.45,0.35-0.74,0.5-0.88c0.04-0.03,0.07-0.05,0.11-0.05c0.04,0,0.09,0.02,0.14,0.06C23.96,17.94,24.03,18,24.09,18.05z"/>
		<path class="st0" d="M24.78,19.81c-0.03,0.18-0.12,0.48-0.25,0.9c0.04-0.03,0.09-0.1,0.16-0.19c0.01-0.01,0.02-0.02,0.03-0.02
			c0.02,0,0.02,0.02,0.01,0.06c-0.01,0.01-0.06,0.11-0.17,0.28c-0.08,0.13-0.14,0.24-0.18,0.34c-0.01,0.03-0.03,0.05-0.07,0.05
			c-0.03,0-0.08-0.02-0.13-0.05c-0.03-0.02-0.05-0.03-0.05-0.04c0-0.01,0.01-0.03,0.02-0.05c0.07-0.13,0.15-0.34,0.24-0.64
			c0.08-0.29,0.13-0.51,0.14-0.65c0-0.06,0-0.09-0.02-0.09c-0.01,0-0.03,0.01-0.06,0.04l-0.12,0.12c-0.04,0.04-0.07,0.04-0.07,0.01
			c0-0.01,0.01-0.02,0.02-0.04c0.06-0.09,0.13-0.17,0.2-0.25c0.02-0.02,0.04-0.03,0.06-0.03c0.02,0,0.05,0.01,0.09,0.04
			c0.06,0.02,0.1,0.03,0.1,0.03c0.03,0.02,0.05,0.05,0.05,0.1C24.79,19.75,24.78,19.78,24.78,19.81z M25.06,18.93
			c0.02,0.02,0.03,0.03,0.03,0.05c0,0.04-0.06,0.1-0.17,0.18c-0.08,0.05-0.15,0.07-0.22,0.06c-0.04-0.01-0.08-0.02-0.1-0.04
			c-0.01-0.01-0.02-0.02-0.02-0.03s-0.01-0.02,0-0.02c0-0.01,0.01-0.01,0.02,0c0.12-0.11,0.2-0.18,0.24-0.23
			c0.03-0.03,0.05-0.05,0.07-0.05C24.93,18.84,24.98,18.87,25.06,18.93z"/>
		<path class="st0" d="M26.52,20.46c-0.08,0.12-0.19,0.3-0.31,0.53c-0.02,0.06-0.05,0.12-0.07,0.18c-0.02,0.04-0.04,0.06-0.07,0.06
			c-0.02,0-0.06-0.01-0.11-0.03c-0.05-0.02-0.08-0.04-0.08-0.06c0-0.01,0.01-0.03,0.03-0.06c0.09-0.18,0.17-0.4,0.23-0.66
			c0.07-0.28,0.11-0.49,0.09-0.64c0-0.06-0.02-0.09-0.04-0.09c-0.02,0-0.04,0.02-0.08,0.05c-0.34,0.33-0.63,0.77-0.88,1.32
			c-0.03,0.07-0.07,0.1-0.11,0.1c-0.03,0-0.08-0.02-0.15-0.05c-0.03-0.01-0.04-0.02-0.04-0.03c0-0.01,0.01-0.02,0.02-0.06
			c0.08-0.17,0.16-0.39,0.23-0.65c0.08-0.28,0.13-0.5,0.14-0.66c0-0.05,0-0.07,0-0.07c0,0-0.02,0.02-0.06,0.05
			c-0.04,0.04-0.09,0.08-0.15,0.14c-0.01,0.01-0.03,0.02-0.04,0.02c-0.02,0-0.03-0.01-0.03-0.02c0-0.01,0.01-0.02,0.02-0.04
			c0.06-0.07,0.13-0.17,0.23-0.28c0.02-0.02,0.04-0.03,0.06-0.03c0.03,0,0.06,0.02,0.08,0.07c0.11,0.03,0.16,0.08,0.15,0.15
			c-0.01,0.15-0.09,0.41-0.23,0.8c0.09-0.17,0.22-0.37,0.39-0.58c0.17-0.21,0.3-0.34,0.38-0.38c0.04-0.02,0.07-0.03,0.09-0.03
			c0.02,0,0.05,0.01,0.08,0.04c0.11,0.04,0.17,0.1,0.17,0.19c0,0.09-0.02,0.24-0.07,0.45c-0.04,0.17-0.07,0.31-0.1,0.4
			c0.04-0.05,0.09-0.11,0.15-0.19c0.01-0.01,0.02-0.02,0.03-0.02c0.02,0,0.03,0.01,0.03,0.04C26.53,20.44,26.53,20.45,26.52,20.46z"
			/>
		<path class="st0" d="M28.14,19.75c-0.41,2.14-0.95,3.21-1.61,3.21c-0.24,0-0.49-0.13-0.77-0.39c-0.03-0.02-0.04-0.05-0.04-0.07
			c0-0.04,0.02-0.06,0.05-0.06c0.02,0,0.04,0.01,0.05,0.02c0.22,0.19,0.41,0.28,0.59,0.28c0.55,0,1.01-0.81,1.38-2.44
			c-0.22,0.39-0.42,0.66-0.59,0.83c-0.07,0.07-0.13,0.1-0.18,0.1c-0.05,0-0.11-0.03-0.18-0.08c-0.13-0.06-0.19-0.17-0.18-0.31
			c0.01-0.18,0.08-0.39,0.2-0.65c0.12-0.25,0.26-0.44,0.39-0.57c0.08-0.07,0.15-0.11,0.21-0.11c0.05,0,0.1,0.02,0.15,0.06
			c0.01,0.01,0.06,0.05,0.16,0.14c0.02,0.02,0.03,0.03,0.03,0.05c0,0.02-0.02,0.04-0.05,0.04c-0.02,0-0.04-0.01-0.07-0.02
			c-0.04-0.02-0.08-0.03-0.12-0.03c-0.06,0-0.11,0.02-0.15,0.06c-0.1,0.09-0.2,0.23-0.31,0.42c-0.12,0.21-0.19,0.41-0.22,0.58
			c-0.01,0.05-0.01,0.09-0.01,0.12c0,0.1,0.03,0.15,0.08,0.15c0.04,0,0.07-0.02,0.11-0.05c0.16-0.14,0.32-0.33,0.48-0.59
			c0.15-0.24,0.25-0.46,0.31-0.66c0.02-0.07,0.03-0.14,0.03-0.2c0-0.05,0.01-0.08,0.04-0.08c0.03,0,0.08,0.03,0.15,0.08
			C28.15,19.61,28.16,19.67,28.14,19.75z"/>
	</g>
	<g>
		<path class="st0" d="M11.23,22.89l-0.01,0.06c-0.04,0.01-0.08,0.01-0.11,0.01c-0.03,0-0.07,0-0.13-0.01
			c-0.05,0-0.09-0.01-0.13-0.01c-0.06,0-0.13,0.01-0.2,0.02l0.01-0.05c0.06-0.01,0.11-0.02,0.14-0.04c0.02-0.01,0.04-0.04,0.05-0.08
			c0.02-0.04,0.05-0.16,0.1-0.37l0.12-0.51l0.01-0.02c-0.04,0-0.07,0-0.09,0c-0.12,0-0.21,0.01-0.28,0.04
			c-0.07,0.03-0.12,0.06-0.16,0.11c-0.04,0.05-0.05,0.1-0.05,0.16c0,0.02,0,0.04,0.01,0.06c0.01,0.01,0.02,0.03,0.04,0.06
			c0.02,0.02,0.03,0.05,0.03,0.07c0,0.02-0.01,0.03-0.02,0.04c-0.01,0.01-0.03,0.02-0.05,0.02c-0.03,0-0.05-0.01-0.07-0.04
			c-0.02-0.04-0.04-0.09-0.04-0.14c0-0.08,0.02-0.15,0.07-0.23c0.05-0.07,0.12-0.13,0.2-0.17c0.08-0.04,0.19-0.06,0.31-0.06
			c0.06,0,0.15,0.01,0.28,0.03c0.09,0.01,0.16,0.02,0.2,0.02c0.04,0,0.07-0.01,0.09-0.02c0.02-0.01,0.03-0.03,0.03-0.05
			c0,0,0-0.01,0-0.03c0-0.01,0-0.02,0-0.02c0-0.02,0.01-0.03,0.02-0.04c0.01-0.01,0.03-0.02,0.04-0.02c0.02,0,0.04,0.01,0.05,0.02
			c0.01,0.01,0.02,0.03,0.02,0.06c0,0.05-0.03,0.09-0.08,0.13c-0.05,0.04-0.14,0.05-0.26,0.05c-0.04,0-0.09,0-0.14-0.01
			c-0.01,0.02-0.03,0.1-0.06,0.24l-0.08,0.33l-0.05,0.2l-0.05,0.23c0.04,0.01,0.08,0.01,0.11,0.01
			C11.14,22.91,11.18,22.9,11.23,22.89z"/>
		<path class="st0" d="M11.61,22.95h-0.14l0.07-0.26c0.03-0.13,0.06-0.25,0.09-0.36c0.01-0.03,0.01-0.05,0.01-0.05
			c0-0.02-0.01-0.02-0.02-0.02c-0.01,0-0.02,0.01-0.04,0.02c-0.02,0.01-0.06,0.05-0.11,0.1l-0.03-0.03
			c0.06-0.07,0.12-0.12,0.18-0.15c0.06-0.03,0.11-0.05,0.14-0.05c0.01,0,0.02,0,0.03,0.01c0.01,0.01,0.01,0.01,0.01,0.02
			c0,0.01,0,0.03-0.01,0.07l-0.04,0.17c0.07-0.1,0.14-0.19,0.22-0.26c0.04-0.03,0.07-0.05,0.1-0.05c0.02,0,0.04,0.01,0.05,0.02
			c0.01,0.01,0.02,0.03,0.02,0.04c0,0.02-0.01,0.03-0.02,0.04c-0.01,0.01-0.04,0.03-0.09,0.04c-0.05,0.02-0.09,0.04-0.12,0.06
			c-0.03,0.02-0.06,0.06-0.1,0.1c-0.04,0.05-0.06,0.09-0.07,0.12s-0.04,0.11-0.06,0.24L11.61,22.95z"/>
		<path class="st0" d="M12.53,22.7l0.03,0.04c-0.16,0.15-0.29,0.22-0.41,0.22c-0.05,0-0.08-0.02-0.1-0.05
			c-0.02-0.03-0.04-0.08-0.04-0.15c0-0.14,0.04-0.27,0.13-0.41c0.09-0.15,0.21-0.23,0.34-0.23c0.05,0,0.08,0.01,0.1,0.03
			c0.02,0.02,0.04,0.05,0.04,0.09c0,0.04-0.01,0.08-0.04,0.12c-0.03,0.04-0.08,0.08-0.16,0.13c-0.04,0.02-0.12,0.06-0.24,0.11
			c-0.01,0.03-0.01,0.07-0.01,0.1c0,0.05,0.01,0.08,0.02,0.1c0.01,0.02,0.04,0.03,0.06,0.03c0.03,0,0.06-0.01,0.09-0.02
			C12.38,22.8,12.44,22.76,12.53,22.7z M12.19,22.56c0.1-0.05,0.18-0.1,0.23-0.15c0.04-0.04,0.05-0.07,0.05-0.11
			c0-0.03-0.01-0.05-0.02-0.07s-0.03-0.02-0.06-0.02c-0.02,0-0.05,0.01-0.07,0.03c-0.03,0.02-0.06,0.06-0.08,0.11
			C12.22,22.42,12.2,22.49,12.19,22.56z"/>
		<path class="st0" d="M12.72,22.36l-0.03-0.03c0.08-0.08,0.15-0.13,0.2-0.16s0.09-0.04,0.13-0.04c0.01,0,0.02,0,0.03,0.01
			c0.01,0.01,0.01,0.01,0.01,0.02c0,0.01,0,0.02,0,0.03l-0.04,0.19c0.07-0.07,0.15-0.14,0.25-0.2c0.05-0.03,0.1-0.05,0.13-0.05
			c0.03,0,0.04,0.01,0.06,0.02c0.01,0.02,0.02,0.04,0.02,0.07c0,0.02,0,0.04-0.01,0.07c-0.01,0.04-0.04,0.13-0.08,0.27
			c-0.04,0.13-0.06,0.22-0.06,0.26c0,0.01,0,0.02,0.01,0.03c0,0.01,0.01,0.01,0.02,0.01c0.02,0,0.05-0.02,0.09-0.05
			c0.03-0.03,0.06-0.05,0.08-0.07l0.02,0.03c-0.06,0.07-0.12,0.12-0.18,0.16c-0.04,0.03-0.07,0.04-0.1,0.04
			c-0.02,0-0.04-0.01-0.06-0.03c-0.01-0.02-0.02-0.05-0.02-0.09c0-0.06,0.04-0.2,0.11-0.43c0.02-0.08,0.03-0.13,0.03-0.14
			c0-0.02-0.01-0.03-0.04-0.03c-0.03,0-0.06,0.01-0.1,0.04c-0.06,0.04-0.11,0.09-0.15,0.14c-0.03,0.03-0.05,0.09-0.06,0.17
			l-0.08,0.34h-0.14c0.03-0.1,0.05-0.19,0.07-0.28l0.09-0.37c0-0.01,0-0.03,0-0.03c0-0.02-0.01-0.03-0.02-0.03
			c-0.01,0-0.03,0.01-0.04,0.02C12.79,22.29,12.76,22.32,12.72,22.36z"/>
		<path class="st0" d="M14.34,22.75l0.03,0.04c-0.09,0.07-0.15,0.12-0.19,0.14c-0.06,0.03-0.1,0.05-0.14,0.05
			c-0.02,0-0.03,0-0.04-0.01c-0.01-0.01-0.01-0.02-0.01-0.03s0-0.03,0.01-0.05l0.03-0.12c-0.08,0.08-0.14,0.14-0.19,0.17
			c-0.05,0.03-0.1,0.04-0.14,0.04c-0.03,0-0.06-0.01-0.09-0.04c-0.02-0.03-0.03-0.07-0.03-0.13c0-0.09,0.03-0.2,0.09-0.32
			c0.06-0.12,0.13-0.21,0.21-0.26c0.08-0.06,0.15-0.09,0.21-0.09c0.01,0,0.04,0,0.06,0.01c0.03-0.13,0.06-0.22,0.09-0.27
			c0.03-0.06,0.06-0.11,0.11-0.15c0.04-0.04,0.09-0.07,0.15-0.1c0.06-0.02,0.11-0.03,0.16-0.03c0.03,0,0.05,0.01,0.06,0.02
			c0.02,0.01,0.02,0.03,0.02,0.05c0,0.02-0.01,0.04-0.02,0.05c-0.01,0.01-0.03,0.02-0.06,0.02c-0.02,0-0.05,0-0.09-0.01
			c-0.04-0.01-0.07-0.01-0.09-0.01c-0.02,0-0.04,0.01-0.06,0.02c-0.02,0.01-0.03,0.04-0.05,0.09c-0.01,0.03-0.03,0.12-0.07,0.28
			l-0.14,0.58c-0.02,0.07-0.02,0.11-0.02,0.14c0,0.02,0.01,0.04,0.03,0.04c0.01,0,0.03,0,0.04-0.01
			C14.24,22.83,14.28,22.79,14.34,22.75z M14.14,22.25c-0.05-0.01-0.09-0.02-0.11-0.02c-0.04,0-0.09,0.02-0.13,0.05
			c-0.04,0.03-0.08,0.1-0.12,0.2c-0.04,0.1-0.06,0.18-0.06,0.25c0,0.03,0.01,0.06,0.03,0.08c0.02,0.02,0.04,0.03,0.06,0.03
			c0.03,0,0.06-0.01,0.09-0.04c0.05-0.04,0.09-0.08,0.12-0.13c0.02-0.03,0.04-0.11,0.07-0.24L14.14,22.25z"/>
		<path class="st0" d="M15.65,22.99l-0.08-1.04c-0.02,0.17-0.05,0.34-0.09,0.49c-0.04,0.15-0.1,0.27-0.15,0.35
			c-0.06,0.08-0.12,0.14-0.18,0.17c-0.06,0.03-0.12,0.05-0.18,0.05c-0.04,0-0.06-0.01-0.08-0.02c-0.02-0.01-0.03-0.03-0.03-0.05
			c0-0.02,0.01-0.03,0.02-0.05c0.01-0.01,0.03-0.02,0.05-0.02c0.02,0,0.04,0,0.07,0.01c0.03,0.01,0.05,0.01,0.07,0.01
			c0.03,0,0.06-0.01,0.09-0.03c0.05-0.03,0.1-0.09,0.15-0.18c0.05-0.09,0.09-0.21,0.13-0.36c0.04-0.15,0.06-0.31,0.07-0.45
			c-0.15,0-0.26,0.04-0.36,0.11c-0.07,0.06-0.11,0.12-0.11,0.19c0,0.03,0.02,0.07,0.05,0.11c0.02,0.02,0.03,0.04,0.03,0.06
			c0,0.02-0.01,0.03-0.02,0.04c-0.01,0.01-0.02,0.02-0.04,0.02c-0.02,0-0.05-0.01-0.07-0.04c-0.03-0.04-0.04-0.08-0.04-0.13
			c0-0.07,0.02-0.14,0.07-0.21c0.05-0.07,0.12-0.12,0.2-0.15c0.09-0.03,0.19-0.05,0.31-0.05c0.06,0,0.11-0.01,0.15-0.02
			c0,0.06,0,0.09,0,0.09c0,0.01,0,0.02,0,0.04l0.06,0.73c0.16-0.27,0.31-0.49,0.46-0.67c0.11-0.12,0.2-0.21,0.28-0.25
			c-0.04,0.12-0.09,0.28-0.14,0.48l-0.12,0.46c-0.01,0.03-0.02,0.06-0.03,0.11l-0.02,0.1c0.05,0.01,0.09,0.02,0.13,0.02
			c0.03,0,0.07,0,0.11-0.01l-0.01,0.06c-0.03,0.01-0.06,0.01-0.08,0.01c-0.03,0-0.06,0-0.11-0.01c-0.04-0.01-0.08-0.01-0.11-0.01
			c-0.03,0-0.07,0.01-0.11,0.02c0.04-0.09,0.07-0.22,0.11-0.37l0.07-0.3c0.03-0.13,0.06-0.21,0.08-0.26
			c-0.05,0.06-0.13,0.17-0.24,0.32c-0.09,0.13-0.18,0.29-0.29,0.48L15.65,22.99z"/>
		<path class="st0" d="M17.07,22.7l0.03,0.04c-0.16,0.15-0.29,0.22-0.41,0.22c-0.05,0-0.08-0.02-0.1-0.05
			c-0.02-0.03-0.04-0.08-0.04-0.15c0-0.14,0.04-0.27,0.13-0.41c0.09-0.15,0.21-0.23,0.34-0.23c0.05,0,0.08,0.01,0.1,0.03
			c0.02,0.02,0.04,0.05,0.04,0.09c0,0.04-0.01,0.08-0.04,0.12c-0.03,0.04-0.08,0.08-0.16,0.13c-0.04,0.02-0.12,0.06-0.24,0.11
			c-0.01,0.03-0.01,0.07-0.01,0.1c0,0.05,0.01,0.08,0.02,0.1s0.04,0.03,0.06,0.03c0.03,0,0.06-0.01,0.09-0.02
			C16.93,22.8,16.99,22.76,17.07,22.7z M16.73,22.56c0.1-0.05,0.18-0.1,0.23-0.15c0.04-0.04,0.05-0.07,0.05-0.11
			c0-0.03-0.01-0.05-0.02-0.07c-0.01-0.02-0.03-0.02-0.06-0.02c-0.02,0-0.05,0.01-0.07,0.03c-0.03,0.02-0.06,0.06-0.08,0.11
			C16.76,22.42,16.74,22.49,16.73,22.56z"/>
		<path class="st0" d="M17.74,22.7l0.03,0.04c-0.16,0.15-0.29,0.22-0.41,0.22c-0.05,0-0.08-0.02-0.1-0.05
			c-0.02-0.03-0.04-0.08-0.04-0.15c0-0.14,0.04-0.27,0.13-0.41c0.09-0.15,0.21-0.23,0.34-0.23c0.05,0,0.08,0.01,0.1,0.03
			c0.02,0.02,0.04,0.05,0.04,0.09c0,0.04-0.01,0.08-0.04,0.12c-0.03,0.04-0.08,0.08-0.16,0.13c-0.04,0.02-0.12,0.06-0.24,0.11
			c-0.01,0.03-0.01,0.07-0.01,0.1c0,0.05,0.01,0.08,0.02,0.1c0.01,0.02,0.04,0.03,0.06,0.03c0.03,0,0.06-0.01,0.09-0.02
			C17.6,22.8,17.66,22.76,17.74,22.7z M17.4,22.56c0.1-0.05,0.18-0.1,0.23-0.15c0.04-0.04,0.05-0.07,0.05-0.11
			c0-0.03-0.01-0.05-0.02-0.07s-0.03-0.02-0.06-0.02c-0.02,0-0.05,0.01-0.07,0.03c-0.03,0.02-0.06,0.06-0.08,0.11
			C17.44,22.42,17.42,22.49,17.4,22.56z"/>
		<path class="st0" d="M18.18,21.99l0.15-0.06l-0.07,0.27h0.2l-0.02,0.07h-0.2l-0.08,0.32c-0.03,0.1-0.04,0.16-0.04,0.2
			c0,0.02,0,0.03,0.01,0.04c0.01,0.01,0.02,0.01,0.03,0.01c0.02,0,0.05-0.01,0.09-0.04c0.05-0.03,0.11-0.07,0.15-0.11l0.04,0.04
			c-0.14,0.11-0.24,0.17-0.28,0.19c-0.05,0.02-0.09,0.04-0.11,0.04c-0.02,0-0.04-0.01-0.06-0.03c-0.01-0.02-0.02-0.05-0.02-0.08
			c0-0.05,0.01-0.12,0.04-0.21l0.1-0.38h-0.16l0.02-0.07h0.16L18.18,21.99z"/>
		<path class="st0" d="M18.96,22.13c0.06,0,0.1,0.01,0.13,0.03c0.03,0.02,0.05,0.05,0.05,0.08c0,0.02-0.01,0.03-0.02,0.05
			c-0.01,0.01-0.03,0.02-0.05,0.02c-0.01,0-0.02,0-0.03-0.01c-0.01-0.01-0.02-0.02-0.04-0.04c-0.03-0.04-0.06-0.06-0.09-0.06
			c-0.03,0-0.05,0.01-0.07,0.03c-0.02,0.02-0.03,0.05-0.03,0.08c0,0.03,0.01,0.05,0.02,0.08c0.01,0.02,0.05,0.06,0.1,0.12
			c0.07,0.08,0.11,0.15,0.11,0.22c0,0.07-0.03,0.13-0.09,0.18c-0.06,0.05-0.13,0.08-0.22,0.08c-0.08,0-0.13-0.02-0.17-0.05
			c-0.04-0.03-0.06-0.07-0.06-0.12c0-0.02,0.01-0.04,0.02-0.06c0.01-0.01,0.03-0.02,0.05-0.02c0.02,0,0.03,0.01,0.05,0.02
			c0.01,0.01,0.02,0.03,0.02,0.04c0,0.01,0,0.01,0,0.03c0,0.01,0,0.02,0,0.02c0,0.02,0.01,0.04,0.03,0.05
			c0.02,0.01,0.04,0.02,0.07,0.02c0.03,0,0.07-0.01,0.09-0.02c0.03-0.01,0.05-0.03,0.06-0.05c0.01-0.02,0.02-0.05,0.02-0.07
			c0-0.02-0.01-0.05-0.02-0.07c-0.01-0.02-0.04-0.06-0.09-0.11c-0.07-0.07-0.1-0.15-0.1-0.21c0-0.06,0.03-0.12,0.08-0.17
			C18.82,22.16,18.88,22.13,18.96,22.13z"/>
		<path class="st0" d="M20.39,22.89l-0.01,0.06c-0.04,0.01-0.08,0.01-0.11,0.01c-0.03,0-0.07,0-0.13-0.01
			c-0.05,0-0.09-0.01-0.13-0.01c-0.06,0-0.13,0.01-0.2,0.02l0.01-0.05c0.06-0.01,0.11-0.02,0.14-0.04c0.02-0.01,0.04-0.04,0.05-0.08
			c0.02-0.04,0.05-0.16,0.1-0.37l0.12-0.51l0.01-0.02c-0.04,0-0.07,0-0.09,0c-0.12,0-0.21,0.01-0.28,0.04
			c-0.07,0.03-0.12,0.06-0.16,0.11c-0.04,0.05-0.05,0.1-0.05,0.16c0,0.02,0,0.04,0.01,0.06c0.01,0.01,0.02,0.03,0.04,0.06
			c0.02,0.02,0.03,0.05,0.03,0.07c0,0.02-0.01,0.03-0.02,0.04c-0.01,0.01-0.03,0.02-0.05,0.02c-0.03,0-0.05-0.01-0.07-0.04
			c-0.02-0.04-0.04-0.09-0.04-0.14c0-0.08,0.02-0.15,0.07-0.23c0.05-0.07,0.12-0.13,0.2-0.17c0.08-0.04,0.19-0.06,0.31-0.06
			c0.06,0,0.15,0.01,0.28,0.03c0.09,0.01,0.16,0.02,0.2,0.02c0.04,0,0.07-0.01,0.09-0.02c0.02-0.01,0.03-0.03,0.03-0.05
			c0,0,0-0.01,0-0.03c0-0.01,0-0.02,0-0.02c0-0.02,0.01-0.03,0.02-0.04c0.01-0.01,0.03-0.02,0.04-0.02c0.02,0,0.04,0.01,0.05,0.02
			c0.01,0.01,0.02,0.03,0.02,0.06c0,0.05-0.03,0.09-0.08,0.13s-0.14,0.05-0.26,0.05c-0.04,0-0.09,0-0.14-0.01
			c-0.01,0.02-0.03,0.1-0.06,0.24l-0.08,0.33l-0.05,0.2l-0.05,0.23c0.04,0.01,0.08,0.01,0.11,0.01
			C20.3,22.91,20.35,22.9,20.39,22.89z"/>
		<path class="st0" d="M20.62,22.36l-0.04-0.03c0.06-0.07,0.12-0.12,0.18-0.15c0.05-0.03,0.1-0.04,0.14-0.04
			c0.02,0,0.04,0,0.05,0.01c0.01,0.01,0.02,0.02,0.02,0.04c0,0.02-0.02,0.1-0.06,0.24c-0.07,0.23-0.1,0.37-0.1,0.41
			c0,0.01,0,0.02,0.01,0.02s0.01,0.01,0.01,0.01c0.02,0,0.07-0.04,0.16-0.12l0.04,0.04c-0.09,0.08-0.15,0.14-0.19,0.16
			c-0.04,0.02-0.07,0.03-0.1,0.03c-0.02,0-0.04-0.01-0.05-0.02c-0.01-0.01-0.02-0.03-0.02-0.06c0-0.08,0.05-0.28,0.14-0.59
			c0-0.01,0.01-0.03,0.01-0.04c0-0.01-0.01-0.02-0.02-0.02c-0.01,0-0.03,0.01-0.04,0.02C20.72,22.27,20.68,22.3,20.62,22.36z
			 M21,21.72c0.02,0,0.04,0.01,0.05,0.02c0.01,0.01,0.02,0.03,0.02,0.05c0,0.03-0.01,0.05-0.03,0.07c-0.02,0.02-0.04,0.03-0.07,0.03
			c-0.02,0-0.04-0.01-0.05-0.02c-0.01-0.01-0.02-0.03-0.02-0.05c0-0.03,0.01-0.05,0.03-0.07C20.95,21.73,20.98,21.72,21,21.72z"/>
		<path class="st0" d="M21.09,22.36l-0.03-0.04c0.06-0.06,0.12-0.11,0.18-0.14c0.06-0.03,0.1-0.05,0.14-0.05
			c0.01,0,0.02,0,0.03,0.01c0.01,0.01,0.01,0.01,0.01,0.02c0,0.01-0.01,0.04-0.02,0.07c-0.01,0.05-0.03,0.1-0.03,0.13
			c0.15-0.16,0.27-0.24,0.35-0.24c0.02,0,0.04,0.01,0.05,0.02c0.01,0.01,0.02,0.03,0.02,0.06c0,0.03-0.01,0.07-0.03,0.14
			c0.07-0.08,0.14-0.13,0.19-0.16c0.05-0.03,0.1-0.05,0.13-0.05c0.03,0,0.05,0.01,0.06,0.02c0.01,0.02,0.02,0.04,0.02,0.07
			c0,0.02,0,0.04-0.01,0.07c-0.01,0.03-0.03,0.11-0.07,0.24c-0.05,0.17-0.08,0.27-0.08,0.3c0,0.02,0.01,0.03,0.03,0.03
			c0.01,0,0.02,0,0.04-0.01c0.04-0.03,0.08-0.06,0.12-0.1l0.03,0.03c-0.01,0.01-0.04,0.03-0.08,0.07c-0.05,0.05-0.09,0.08-0.11,0.09
			c-0.04,0.02-0.07,0.03-0.09,0.03c-0.02,0-0.04-0.01-0.05-0.03c-0.01-0.02-0.02-0.05-0.02-0.08c0-0.03,0-0.07,0.01-0.11
			c0.01-0.04,0.04-0.13,0.08-0.28c0.03-0.11,0.05-0.17,0.05-0.2c0-0.02-0.01-0.03-0.03-0.03c-0.02,0-0.04,0.01-0.06,0.02
			c-0.06,0.03-0.1,0.07-0.14,0.12c-0.03,0.03-0.05,0.09-0.07,0.16c-0.04,0.16-0.08,0.29-0.1,0.39h-0.14l0.14-0.59
			c0.01-0.04,0.02-0.07,0.02-0.07c0-0.01,0-0.02-0.01-0.02c-0.01-0.01-0.01-0.01-0.02-0.01c-0.02,0-0.04,0.01-0.08,0.04
			c-0.06,0.05-0.11,0.09-0.14,0.13c-0.03,0.04-0.05,0.11-0.07,0.2l-0.07,0.33h-0.14l0.11-0.46c0.03-0.13,0.05-0.21,0.05-0.22
			c0-0.01-0.01-0.02-0.02-0.02C21.22,22.25,21.17,22.28,21.09,22.36z"/>
		<path class="st0" d="M22.8,22.7l0.03,0.04c-0.16,0.15-0.29,0.22-0.41,0.22c-0.05,0-0.08-0.02-0.1-0.05
			c-0.02-0.03-0.04-0.08-0.04-0.15c0-0.14,0.04-0.27,0.13-0.41c0.09-0.15,0.21-0.23,0.34-0.23c0.05,0,0.08,0.01,0.1,0.03
			c0.02,0.02,0.04,0.05,0.04,0.09c0,0.04-0.01,0.08-0.04,0.12c-0.03,0.04-0.08,0.08-0.16,0.13c-0.04,0.02-0.12,0.06-0.24,0.11
			c-0.01,0.03-0.01,0.07-0.01,0.1c0,0.05,0.01,0.08,0.02,0.1c0.01,0.02,0.04,0.03,0.06,0.03c0.03,0,0.06-0.01,0.09-0.02
			C22.65,22.8,22.72,22.76,22.8,22.7z M22.46,22.56c0.1-0.05,0.18-0.1,0.23-0.15c0.04-0.04,0.05-0.07,0.05-0.11
			c0-0.03-0.01-0.05-0.02-0.07c-0.01-0.02-0.03-0.02-0.06-0.02c-0.02,0-0.05,0.01-0.07,0.03c-0.03,0.02-0.06,0.06-0.08,0.11
			C22.49,22.42,22.47,22.49,22.46,22.56z"/>
		<path class="st0" d="M23.36,22.71l0.03,0.03c-0.05,0.06-0.11,0.11-0.18,0.15c-0.07,0.05-0.12,0.07-0.17,0.07
			c-0.02,0-0.04-0.01-0.05-0.02c-0.01-0.02-0.02-0.04-0.02-0.06c0-0.05,0.02-0.16,0.06-0.32l0.1-0.42c0.04-0.15,0.07-0.26,0.1-0.31
			c0.04-0.08,0.1-0.14,0.17-0.18c0.07-0.04,0.15-0.07,0.23-0.07c0.03,0,0.05,0.01,0.07,0.02c0.02,0.01,0.02,0.03,0.02,0.05
			c0,0.02-0.01,0.04-0.02,0.05c-0.02,0.01-0.04,0.02-0.07,0.02c-0.02,0-0.05,0-0.08-0.01c-0.03-0.01-0.06-0.01-0.09-0.01
			c-0.03,0-0.05,0.01-0.06,0.02c-0.02,0.02-0.04,0.05-0.05,0.1c-0.02,0.05-0.04,0.15-0.07,0.29l-0.1,0.4
			c-0.05,0.2-0.07,0.31-0.07,0.32c0,0.02,0.01,0.03,0.02,0.03c0.01,0,0.03-0.01,0.06-0.03C23.26,22.81,23.31,22.77,23.36,22.71z"/>
		<path class="st0" d="M23.94,22.7l0.03,0.04c-0.16,0.15-0.29,0.22-0.41,0.22c-0.05,0-0.08-0.02-0.1-0.05
			c-0.02-0.03-0.04-0.08-0.04-0.15c0-0.14,0.04-0.27,0.13-0.41c0.09-0.15,0.21-0.23,0.34-0.23c0.05,0,0.08,0.01,0.1,0.03
			c0.02,0.02,0.04,0.05,0.04,0.09c0,0.04-0.01,0.08-0.04,0.12c-0.03,0.04-0.08,0.08-0.16,0.13c-0.04,0.02-0.12,0.06-0.24,0.11
			c-0.01,0.03-0.01,0.07-0.01,0.1c0,0.05,0.01,0.08,0.02,0.1s0.04,0.03,0.06,0.03c0.03,0,0.06-0.01,0.09-0.02
			C23.8,22.8,23.86,22.76,23.94,22.7z M23.6,22.56c0.1-0.05,0.18-0.1,0.23-0.15c0.04-0.04,0.05-0.07,0.05-0.11
			c0-0.03-0.01-0.05-0.02-0.07s-0.03-0.02-0.06-0.02c-0.02,0-0.05,0.01-0.07,0.03c-0.03,0.02-0.06,0.06-0.08,0.11
			C23.64,22.42,23.62,22.49,23.6,22.56z"/>
		<path class="st0" d="M24.53,22.13c0.06,0,0.1,0.01,0.13,0.03c0.03,0.02,0.05,0.05,0.05,0.08c0,0.02-0.01,0.03-0.02,0.05
			c-0.01,0.01-0.03,0.02-0.05,0.02c-0.01,0-0.02,0-0.03-0.01c-0.01-0.01-0.02-0.02-0.04-0.04c-0.03-0.04-0.06-0.06-0.09-0.06
			c-0.03,0-0.05,0.01-0.07,0.03c-0.02,0.02-0.03,0.05-0.03,0.08c0,0.03,0.01,0.05,0.02,0.08c0.01,0.02,0.05,0.06,0.1,0.12
			c0.07,0.08,0.11,0.15,0.11,0.22c0,0.07-0.03,0.13-0.09,0.18c-0.06,0.05-0.13,0.08-0.22,0.08c-0.08,0-0.13-0.02-0.17-0.05
			c-0.04-0.03-0.06-0.07-0.06-0.12c0-0.02,0.01-0.04,0.02-0.06c0.01-0.01,0.03-0.02,0.05-0.02c0.02,0,0.03,0.01,0.05,0.02
			c0.01,0.01,0.02,0.03,0.02,0.04c0,0.01,0,0.01,0,0.03c0,0.01,0,0.02,0,0.02c0,0.02,0.01,0.04,0.03,0.05
			c0.02,0.01,0.04,0.02,0.07,0.02c0.03,0,0.07-0.01,0.09-0.02c0.03-0.01,0.05-0.03,0.06-0.05c0.01-0.02,0.02-0.05,0.02-0.07
			c0-0.02-0.01-0.05-0.02-0.07c-0.01-0.02-0.04-0.06-0.09-0.11c-0.07-0.07-0.1-0.15-0.1-0.21c0-0.06,0.03-0.12,0.08-0.17
			C24.39,22.16,24.45,22.13,24.53,22.13z"/>
		<path class="st0" d="M25.16,22.13c0.06,0,0.1,0.01,0.13,0.03c0.03,0.02,0.05,0.05,0.05,0.08c0,0.02-0.01,0.03-0.02,0.05
			c-0.01,0.01-0.03,0.02-0.05,0.02c-0.01,0-0.02,0-0.03-0.01c-0.01-0.01-0.02-0.02-0.04-0.04c-0.03-0.04-0.06-0.06-0.09-0.06
			c-0.03,0-0.05,0.01-0.07,0.03c-0.02,0.02-0.03,0.05-0.03,0.08c0,0.03,0.01,0.05,0.02,0.08c0.01,0.02,0.05,0.06,0.1,0.12
			c0.07,0.08,0.11,0.15,0.11,0.22c0,0.07-0.03,0.13-0.09,0.18c-0.06,0.05-0.13,0.08-0.22,0.08c-0.08,0-0.13-0.02-0.17-0.05
			c-0.04-0.03-0.06-0.07-0.06-0.12c0-0.02,0.01-0.04,0.02-0.06c0.01-0.01,0.03-0.02,0.05-0.02c0.02,0,0.03,0.01,0.05,0.02
			c0.01,0.01,0.02,0.03,0.02,0.04c0,0.01,0,0.01,0,0.03c0,0.01,0,0.02,0,0.02c0,0.02,0.01,0.04,0.03,0.05
			c0.02,0.01,0.04,0.02,0.07,0.02c0.03,0,0.07-0.01,0.09-0.02c0.03-0.01,0.05-0.03,0.06-0.05c0.01-0.02,0.02-0.05,0.02-0.07
			c0-0.02-0.01-0.05-0.02-0.07c-0.01-0.02-0.04-0.06-0.09-0.11c-0.07-0.07-0.1-0.15-0.1-0.21c0-0.06,0.03-0.12,0.08-0.17
			C25.02,22.16,25.09,22.13,25.16,22.13z"/>
	</g>
</g>
</svg>
